<svg xmlns="http://www.w3.org/2000/svg" xmlns:xlink="http://www.w3.org/1999/xlink" width="150" zoomAndPan="magnify" viewBox="0 0 112.5 37.5" height="50" preserveAspectRatio="xMidYMid meet" version="1.0"><defs><g/></defs><g fill="#ffffff" fill-opacity="1"><g transform="translate(2.903474, 25.707293)"><g><path d="M 6.9375 -3.453125 L 11.59375 -3.453125 L 11.78125 -5.671875 L 15.21875 -5.671875 L 15.21875 0 L 1.359375 0 L 1.359375 -2.65625 L 9.296875 -13.203125 L 5.21875 -13.203125 L 5.046875 -11 L 1.59375 -11 L 1.59375 -16.6875 L 14.9375 -16.6875 L 14.9375 -14.109375 Z M 6.9375 -3.453125 "/></g></g></g><g fill="#ffffff" fill-opacity="1"><g transform="translate(19.398212, 25.707293)"><g><path d="M 8.953125 0.328125 C 6.546875 0.328125 4.625 -0.441406 3.1875 -1.984375 C 1.75 -3.523438 1.03125 -5.484375 1.03125 -7.859375 L 1.03125 -8.484375 C 1.03125 -10.960938 1.710938 -13 3.078125 -14.59375 C 4.441406 -16.195312 6.269531 -16.992188 8.5625 -16.984375 C 10.8125 -16.984375 12.554688 -16.304688 13.796875 -14.953125 C 15.046875 -13.597656 15.671875 -11.765625 15.671875 -9.453125 L 15.671875 -7 L 5.703125 -7 L 5.671875 -6.90625 C 5.753906 -5.8125 6.117188 -4.90625 6.765625 -4.1875 C 7.421875 -3.476562 8.3125 -3.125 9.4375 -3.125 C 10.4375 -3.125 11.265625 -3.222656 11.921875 -3.421875 C 12.578125 -3.628906 13.296875 -3.945312 14.078125 -4.375 L 15.296875 -1.609375 C 14.609375 -1.054688 13.71875 -0.59375 12.625 -0.21875 C 11.53125 0.144531 10.304688 0.328125 8.953125 0.328125 Z M 8.5625 -13.515625 C 7.726562 -13.515625 7.066406 -13.195312 6.578125 -12.5625 C 6.097656 -11.925781 5.800781 -11.085938 5.6875 -10.046875 L 5.734375 -9.96875 L 11.25 -9.96875 L 11.25 -10.375 C 11.25 -11.332031 11.023438 -12.09375 10.578125 -12.65625 C 10.140625 -13.226562 9.46875 -13.515625 8.5625 -13.515625 Z M 8.5625 -13.515625 "/></g></g></g><g fill="#ffffff" fill-opacity="1"><g transform="translate(36.216678, 25.707293)"><g><path d="M 1.3125 -2.703125 L 3.46875 -3.15625 L 3.46875 -13.5 L 1.078125 -13.96875 L 1.078125 -16.6875 L 7.65625 -16.6875 L 7.859375 -14.25 C 8.253906 -15.113281 8.757812 -15.785156 9.375 -16.265625 C 9.988281 -16.742188 10.703125 -16.984375 11.515625 -16.984375 C 11.753906 -16.984375 12.003906 -16.96875 12.265625 -16.9375 C 12.523438 -16.90625 12.742188 -16.863281 12.921875 -16.8125 L 12.4375 -12.703125 L 10.59375 -12.75 C 9.9375 -12.75 9.390625 -12.617188 8.953125 -12.359375 C 8.523438 -12.109375 8.195312 -11.742188 7.96875 -11.265625 L 7.96875 -3.15625 L 10.125 -2.703125 L 10.125 0 L 1.3125 0 Z M 1.3125 -2.703125 "/></g></g></g><g fill="#ffffff" fill-opacity="1"><g transform="translate(49.504963, 25.707293)"><g><path d="M 0.828125 -2.703125 L 3 -3.15625 L 3 -13.5 L 0.59375 -13.96875 L 0.59375 -16.6875 L 7.515625 -16.6875 L 7.515625 -3.15625 L 9.671875 -2.703125 L 9.671875 0 L 0.828125 0 Z M 7.515625 -20.671875 L 3 -20.671875 L 3 -24.046875 L 7.515625 -24.046875 Z M 7.515625 -20.671875 "/></g></g></g><g fill="#ffffff" fill-opacity="1"><g transform="translate(59.679287, 25.707293)"><g><path d="M 14.59375 -10.953125 L 11.5625 -10.953125 L 11.09375 -13.03125 C 10.78125 -13.28125 10.390625 -13.484375 9.921875 -13.640625 C 9.453125 -13.804688 8.9375 -13.890625 8.375 -13.890625 C 7.582031 -13.890625 6.953125 -13.710938 6.484375 -13.359375 C 6.023438 -13.003906 5.796875 -12.5625 5.796875 -12.03125 C 5.796875 -11.519531 6.015625 -11.097656 6.453125 -10.765625 C 6.898438 -10.429688 7.785156 -10.140625 9.109375 -9.890625 C 11.179688 -9.472656 12.710938 -8.863281 13.703125 -8.0625 C 14.703125 -7.269531 15.203125 -6.175781 15.203125 -4.78125 C 15.203125 -3.28125 14.554688 -2.050781 13.265625 -1.09375 C 11.972656 -0.144531 10.273438 0.328125 8.171875 0.328125 C 6.890625 0.328125 5.707031 0.140625 4.625 -0.234375 C 3.550781 -0.609375 2.597656 -1.144531 1.765625 -1.84375 L 1.734375 -5.59375 L 4.875 -5.59375 L 5.484375 -3.421875 C 5.753906 -3.191406 6.117188 -3.023438 6.578125 -2.921875 C 7.046875 -2.816406 7.53125 -2.765625 8.03125 -2.765625 C 8.945312 -2.765625 9.644531 -2.925781 10.125 -3.25 C 10.601562 -3.582031 10.84375 -4.03125 10.84375 -4.59375 C 10.84375 -5.082031 10.597656 -5.507812 10.109375 -5.875 C 9.628906 -6.238281 8.742188 -6.554688 7.453125 -6.828125 C 5.484375 -7.234375 4 -7.828125 3 -8.609375 C 2 -9.398438 1.5 -10.472656 1.5 -11.828125 C 1.5 -13.222656 2.070312 -14.425781 3.21875 -15.4375 C 4.375 -16.445312 6.015625 -16.953125 8.140625 -16.953125 C 9.429688 -16.953125 10.65625 -16.773438 11.8125 -16.421875 C 12.96875 -16.078125 13.878906 -15.632812 14.546875 -15.09375 Z M 14.59375 -10.953125 "/></g></g></g><g fill="#ffffff" fill-opacity="1"><g transform="translate(30.46931, 33.8159)"><g><path d="M 3.21875 -3.515625 L 3.21875 -2.578125 L 2.6875 -2.578125 L 2.65625 -2.96875 L 2.015625 -2.96875 L 2.015625 -0.5 L 2.390625 -0.421875 L 2.390625 0 L 0.9375 0 L 0.9375 -0.421875 L 1.3125 -0.5 L 1.3125 -2.96875 L 0.65625 -2.96875 L 0.640625 -2.578125 L 0.09375 -2.578125 L 0.09375 -3.515625 Z M 3.21875 -3.515625 "/></g></g></g><g fill="#ffffff" fill-opacity="1"><g transform="translate(36.85597, 33.8159)"><g><path d="M 2.40625 -1.546875 L 1.21875 -1.546875 L 1.21875 -0.546875 L 2.34375 -0.546875 L 2.375 -0.953125 L 2.90625 -0.953125 L 2.90625 0 L 0.140625 0 L 0.140625 -0.421875 L 0.515625 -0.5 L 0.515625 -3.015625 L 0.140625 -3.09375 L 0.140625 -3.515625 L 2.90625 -3.515625 L 2.90625 -2.546875 L 2.375 -2.546875 L 2.34375 -2.96875 L 1.21875 -2.96875 L 1.21875 -2.078125 L 2.40625 -2.078125 Z M 2.40625 -1.546875 "/></g></g></g><g fill="#ffffff" fill-opacity="1"><g transform="translate(43.076389, 33.8159)"><g><path d="M 3.015625 -2.328125 L 2.484375 -2.328125 L 2.421875 -2.796875 C 2.347656 -2.859375 2.257812 -2.910156 2.15625 -2.953125 C 2.050781 -2.992188 1.925781 -3.015625 1.78125 -3.015625 C 1.476562 -3.015625 1.242188 -2.90625 1.078125 -2.6875 C 0.910156 -2.46875 0.828125 -2.175781 0.828125 -1.8125 L 0.828125 -1.6875 C 0.828125 -1.332031 0.910156 -1.039062 1.078125 -0.8125 C 1.242188 -0.59375 1.472656 -0.484375 1.765625 -0.484375 C 1.910156 -0.484375 2.039062 -0.503906 2.15625 -0.546875 C 2.269531 -0.585938 2.359375 -0.644531 2.421875 -0.71875 L 2.484375 -1.1875 L 3.015625 -1.1875 L 3.015625 -0.484375 C 2.867188 -0.316406 2.6875 -0.1875 2.46875 -0.09375 C 2.25 0 2.003906 0.046875 1.734375 0.046875 C 1.265625 0.046875 0.878906 -0.113281 0.578125 -0.4375 C 0.273438 -0.757812 0.125 -1.175781 0.125 -1.6875 L 0.125 -1.8125 C 0.125 -2.320312 0.269531 -2.738281 0.5625 -3.0625 C 0.863281 -3.394531 1.253906 -3.5625 1.734375 -3.5625 C 2.003906 -3.5625 2.25 -3.507812 2.46875 -3.40625 C 2.6875 -3.3125 2.867188 -3.179688 3.015625 -3.015625 Z M 3.015625 -2.328125 "/></g></g></g><g fill="#ffffff" fill-opacity="1"><g transform="translate(49.342585, 33.8159)"><g><path d="M 0.140625 -3.09375 L 0.140625 -3.515625 L 1.59375 -3.515625 L 1.59375 -3.09375 L 1.21875 -3.015625 L 1.21875 -2 L 2.640625 -2 L 2.640625 -3.015625 L 2.265625 -3.09375 L 2.265625 -3.515625 L 3.71875 -3.515625 L 3.71875 -3.09375 L 3.34375 -3.015625 L 3.34375 -0.5 L 3.71875 -0.421875 L 3.71875 0 L 2.265625 0 L 2.265625 -0.421875 L 2.640625 -0.5 L 2.640625 -1.453125 L 1.21875 -1.453125 L 1.21875 -0.5 L 1.59375 -0.421875 L 1.59375 0 L 0.140625 0 L 0.140625 -0.421875 L 0.515625 -0.5 L 0.515625 -3.015625 Z M 0.140625 -3.09375 "/></g></g></g><g fill="#ffffff" fill-opacity="1"><g transform="translate(56.268924, 33.8159)"><g><path d="M 3.71875 -3.515625 L 3.71875 -3.09375 L 3.34375 -3.015625 L 3.34375 0 L 2.640625 0 L 1.234375 -2.359375 L 1.21875 -2.359375 L 1.21875 -0.5 L 1.59375 -0.421875 L 1.59375 0 L 0.140625 0 L 0.140625 -0.421875 L 0.515625 -0.5 L 0.515625 -3.015625 L 0.140625 -3.09375 L 0.140625 -3.515625 L 1.21875 -3.515625 L 2.625 -1.140625 L 2.640625 -1.15625 L 2.640625 -3.015625 L 2.265625 -3.09375 L 2.265625 -3.515625 Z M 3.71875 -3.515625 "/></g></g></g><g fill="#ffffff" fill-opacity="1"><g transform="translate(63.149488, 33.8159)"><g><path d="M 3.34375 -1.734375 C 3.34375 -1.210938 3.195312 -0.785156 2.90625 -0.453125 C 2.613281 -0.117188 2.226562 0.046875 1.75 0.046875 C 1.269531 0.046875 0.882812 -0.117188 0.59375 -0.453125 C 0.300781 -0.785156 0.15625 -1.210938 0.15625 -1.734375 L 0.15625 -1.78125 C 0.15625 -2.289062 0.300781 -2.710938 0.59375 -3.046875 C 0.882812 -3.390625 1.269531 -3.5625 1.75 -3.5625 C 2.21875 -3.5625 2.597656 -3.390625 2.890625 -3.046875 C 3.191406 -2.710938 3.34375 -2.289062 3.34375 -1.78125 Z M 2.640625 -1.78125 C 2.640625 -2.144531 2.5625 -2.441406 2.40625 -2.671875 C 2.257812 -2.898438 2.039062 -3.015625 1.75 -3.015625 C 1.445312 -3.015625 1.222656 -2.898438 1.078125 -2.671875 C 0.929688 -2.453125 0.859375 -2.15625 0.859375 -1.78125 L 0.859375 -1.734375 C 0.859375 -1.359375 0.929688 -1.054688 1.078125 -0.828125 C 1.234375 -0.609375 1.457031 -0.5 1.75 -0.5 C 2.039062 -0.5 2.257812 -0.609375 2.40625 -0.828125 C 2.5625 -1.054688 2.640625 -1.359375 2.640625 -1.734375 Z M 2.640625 -1.78125 "/></g></g></g><g fill="#ffffff" fill-opacity="1"><g transform="translate(69.707209, 33.8159)"><g><path d="M 0.140625 0 L 0.140625 -0.421875 L 0.515625 -0.5 L 0.515625 -3.015625 L 0.140625 -3.09375 L 0.140625 -3.515625 L 1.59375 -3.515625 L 1.59375 -3.09375 L 1.21875 -3.015625 L 1.21875 -0.546875 L 2.203125 -0.546875 L 2.234375 -0.984375 L 2.78125 -0.984375 L 2.78125 0 Z M 0.140625 0 "/></g></g></g><g fill="#ffffff" fill-opacity="1"><g transform="translate(75.667427, 33.8159)"><g><path d="M 3.34375 -1.734375 C 3.34375 -1.210938 3.195312 -0.785156 2.90625 -0.453125 C 2.613281 -0.117188 2.226562 0.046875 1.75 0.046875 C 1.269531 0.046875 0.882812 -0.117188 0.59375 -0.453125 C 0.300781 -0.785156 0.15625 -1.210938 0.15625 -1.734375 L 0.15625 -1.78125 C 0.15625 -2.289062 0.300781 -2.710938 0.59375 -3.046875 C 0.882812 -3.390625 1.269531 -3.5625 1.75 -3.5625 C 2.21875 -3.5625 2.597656 -3.390625 2.890625 -3.046875 C 3.191406 -2.710938 3.34375 -2.289062 3.34375 -1.78125 Z M 2.640625 -1.78125 C 2.640625 -2.144531 2.5625 -2.441406 2.40625 -2.671875 C 2.257812 -2.898438 2.039062 -3.015625 1.75 -3.015625 C 1.445312 -3.015625 1.222656 -2.898438 1.078125 -2.671875 C 0.929688 -2.453125 0.859375 -2.15625 0.859375 -1.78125 L 0.859375 -1.734375 C 0.859375 -1.359375 0.929688 -1.054688 1.078125 -0.828125 C 1.234375 -0.609375 1.457031 -0.5 1.75 -0.5 C 2.039062 -0.5 2.257812 -0.609375 2.40625 -0.828125 C 2.5625 -1.054688 2.640625 -1.359375 2.640625 -1.734375 Z M 2.640625 -1.78125 "/></g></g></g><g fill="#ffffff" fill-opacity="1"><g transform="translate(82.225147, 33.8159)"><g><path d="M 3.046875 -0.390625 C 2.929688 -0.273438 2.765625 -0.171875 2.546875 -0.078125 C 2.328125 0.00390625 2.050781 0.046875 1.71875 0.046875 C 1.238281 0.046875 0.847656 -0.109375 0.546875 -0.421875 C 0.253906 -0.742188 0.109375 -1.15625 0.109375 -1.65625 L 0.109375 -1.78125 C 0.109375 -2.3125 0.253906 -2.738281 0.546875 -3.0625 C 0.847656 -3.394531 1.234375 -3.5625 1.703125 -3.5625 C 1.972656 -3.5625 2.222656 -3.515625 2.453125 -3.421875 C 2.679688 -3.335938 2.867188 -3.222656 3.015625 -3.078125 L 3.015625 -2.375 L 2.5 -2.375 L 2.40625 -2.84375 C 2.34375 -2.894531 2.253906 -2.9375 2.140625 -2.96875 C 2.035156 -3 1.914062 -3.015625 1.78125 -3.015625 C 1.476562 -3.015625 1.238281 -2.898438 1.0625 -2.671875 C 0.894531 -2.453125 0.8125 -2.15625 0.8125 -1.78125 L 0.8125 -1.65625 C 0.8125 -1.300781 0.894531 -1.015625 1.0625 -0.796875 C 1.226562 -0.585938 1.46875 -0.484375 1.78125 -0.484375 C 1.925781 -0.484375 2.039062 -0.492188 2.125 -0.515625 C 2.21875 -0.546875 2.289062 -0.578125 2.34375 -0.609375 L 2.34375 -1.203125 L 1.84375 -1.25 L 1.84375 -1.734375 L 3.046875 -1.734375 Z M 3.046875 -0.390625 "/></g></g></g><g fill="#ffffff" fill-opacity="1"><g transform="translate(88.553986, 33.8159)"><g><path d="M 0.125 -3.09375 L 0.125 -3.515625 L 1.59375 -3.515625 L 1.59375 -3.09375 L 1.203125 -3.015625 L 1.203125 -0.5 L 1.59375 -0.421875 L 1.59375 0 L 0.125 0 L 0.125 -0.421875 L 0.515625 -0.5 L 0.515625 -3.015625 Z M 0.125 -3.09375 "/></g></g></g><g fill="#ffffff" fill-opacity="1"><g transform="translate(93.340884, 33.8159)"><g><path d="M 2.40625 -1.546875 L 1.21875 -1.546875 L 1.21875 -0.546875 L 2.34375 -0.546875 L 2.375 -0.953125 L 2.90625 -0.953125 L 2.90625 0 L 0.140625 0 L 0.140625 -0.421875 L 0.515625 -0.5 L 0.515625 -3.015625 L 0.140625 -3.09375 L 0.140625 -3.515625 L 2.90625 -3.515625 L 2.90625 -2.546875 L 2.375 -2.546875 L 2.34375 -2.96875 L 1.21875 -2.96875 L 1.21875 -2.078125 L 2.40625 -2.078125 Z M 2.40625 -1.546875 "/></g></g></g><g fill="#ffffff" fill-opacity="1"><g transform="translate(99.561305, 33.8159)"><g><path d="M 2.796875 -2.390625 L 2.28125 -2.390625 L 2.1875 -2.875 C 2.125 -2.90625 2.03125 -2.9375 1.90625 -2.96875 C 1.789062 -3 1.671875 -3.015625 1.546875 -3.015625 C 1.347656 -3.015625 1.195312 -2.972656 1.09375 -2.890625 C 0.988281 -2.804688 0.9375 -2.703125 0.9375 -2.578125 C 0.9375 -2.460938 0.988281 -2.363281 1.09375 -2.28125 C 1.207031 -2.207031 1.398438 -2.128906 1.671875 -2.046875 C 2.054688 -1.941406 2.347656 -1.800781 2.546875 -1.625 C 2.753906 -1.445312 2.859375 -1.210938 2.859375 -0.921875 C 2.859375 -0.617188 2.738281 -0.378906 2.5 -0.203125 C 2.257812 -0.0351562 1.945312 0.046875 1.5625 0.046875 C 1.28125 0.046875 1.023438 0.00390625 0.796875 -0.078125 C 0.578125 -0.171875 0.390625 -0.296875 0.234375 -0.453125 L 0.234375 -1.1875 L 0.78125 -1.1875 L 0.859375 -0.6875 C 0.929688 -0.625 1.023438 -0.570312 1.140625 -0.53125 C 1.265625 -0.5 1.40625 -0.484375 1.5625 -0.484375 C 1.75 -0.484375 1.890625 -0.519531 1.984375 -0.59375 C 2.085938 -0.675781 2.140625 -0.785156 2.140625 -0.921875 C 2.140625 -1.054688 2.09375 -1.160156 2 -1.234375 C 1.90625 -1.316406 1.738281 -1.394531 1.5 -1.46875 C 1.082031 -1.59375 0.765625 -1.738281 0.546875 -1.90625 C 0.335938 -2.070312 0.234375 -2.296875 0.234375 -2.578125 C 0.234375 -2.867188 0.351562 -3.101562 0.59375 -3.28125 C 0.832031 -3.457031 1.132812 -3.550781 1.5 -3.5625 C 1.769531 -3.5625 2.015625 -3.519531 2.234375 -3.4375 C 2.460938 -3.351562 2.648438 -3.242188 2.796875 -3.109375 Z M 2.796875 -2.390625 "/></g></g></g></svg>