<?xml version="1.0" encoding="UTF-8"?>
<svg width="384px" height="81px" viewBox="0 0 384 81" version="1.1" xmlns="http://www.w3.org/2000/svg" xmlns:xlink="http://www.w3.org/1999/xlink">
    <title>ueni-white</title>
    <g id="Cyan" stroke="none" stroke-width="1" fill="none" fill-rule="evenodd">
        <g id="ueni-white" fill="#FFFFFF" fill-rule="nonzero">
            <path d="M64,0 L64,40 C64,52.92 52.89,64 40,64 C27.11,64 16,52.92 16,40 L16,0 L0,0 L0,40 L0,40 L0,40.1 C0,62.19139 17.90861,80.1 40,80.1 C62.09139,80.1 80,62.19139 80,40.1 L80,40 L80,40 L80,0 L64,0 Z" id="Path"></path>
            <polygon id="Path" points="384 0 384 80 368 80 368 0"></polygon>
            <polygon id="Path" points="304 0 304 60 256 0 240 0 240 80 256 80 256 20 304 80 320 80 320 0"></polygon>
            <polygon id="Path" points="192 16 192 0 128 0 128 64 128 80 144 80 192 80 192 64 144 64 144 48 168 48 168 32 144 32 144 16"></polygon>
        </g>
    </g>
</svg>