<svg xmlns="http://www.w3.org/2000/svg" xmlns:xlink="http://www.w3.org/1999/xlink" width="520" zoomAndPan="magnify" viewBox="0 0 390 341.249999" height="455" preserveAspectRatio="xMidYMid meet" version="1.0"><defs><g/><clipPath id="6dc06d6f15"><path d="M 107.261719 38.164062 L 285.84375 38.164062 L 285.84375 306.453125 L 107.261719 306.453125 Z M 107.261719 38.164062 " clip-rule="nonzero"/></clipPath><clipPath id="e595856104"><path d="M 104.179688 34.050781 L 282.78125 34.050781 L 282.78125 302.378906 L 104.179688 302.378906 Z M 104.179688 34.050781 " clip-rule="nonzero"/></clipPath><clipPath id="6ec1b41431"><path d="M 279.1875 92.703125 C 278.636719 90.734375 277.976562 89.230469 277.355469 87.949219 C 276.421875 86.046875 275.554688 84.628906 274.855469 83.4375 C 274.15625 82.257812 273.617188 81.316406 273.296875 80.671875 L 273.289062 80.660156 C 273.050781 80.183594 272.746094 79.519531 272.394531 78.730469 C 271.867188 77.542969 271.242188 76.082031 270.433594 74.40625 C 270.027344 73.570312 269.566406 72.671875 269.011719 71.707031 C 268.453125 70.742188 267.804688 69.707031 266.960938 68.589844 C 264.597656 65.480469 261.949219 62.722656 259.125 60.210938 C 254.886719 56.449219 250.253906 53.226562 245.46875 50.433594 C 240.679688 47.644531 235.75 45.300781 230.871094 43.417969 C 226.328125 41.675781 220.707031 39.382812 214.140625 37.472656 C 207.578125 35.566406 200 34.050781 191.59375 34.050781 C 189.21875 34.050781 186.78125 34.171875 184.292969 34.4375 C 180.066406 34.898438 176.457031 35.878906 173.257812 36.832031 C 170.070312 37.792969 167.28125 38.753906 165.070312 39.40625 L 165.078125 39.402344 C 161.367188 40.503906 158.050781 41.945312 155.058594 43.449219 C 152.070312 44.960938 149.40625 46.546875 147.109375 48.003906 C 141.316406 51.695312 135.96875 56.171875 131.070312 60.90625 C 126.179688 65.644531 121.789062 70.628906 118.144531 75.445312 C 114.972656 79.644531 111.984375 84.375 109.570312 89.765625 C 107.152344 95.152344 105.339844 101.171875 104.351562 107.761719 C 103.613281 112.65625 105.292969 117.65625 108.839844 121.105469 C 110.074219 122.3125 111.308594 123.277344 112.367188 124.019531 C 113.96875 125.132812 115.132812 125.777344 115.738281 126.160156 C 116.015625 126.328125 116.1875 126.445312 116.285156 126.511719 C 116.390625 126.628906 116.578125 126.839844 116.847656 127.152344 C 117.183594 127.535156 117.644531 128.074219 118.289062 128.746094 C 118.773438 129.25 119.359375 129.832031 120.085938 130.453125 C 121.167969 131.386719 122.578125 132.421875 124.304688 133.3125 C 126.023438 134.203125 128.050781 134.914062 130.109375 135.28125 L 130.121094 135.285156 C 131.613281 135.554688 133.03125 135.65625 134.324219 135.65625 C 136.660156 135.652344 138.558594 135.34375 140.082031 135.042969 C 141.226562 134.8125 142.167969 134.574219 142.957031 134.375 C 144.136719 134.074219 144.964844 133.871094 145.496094 133.769531 C 145.757812 133.71875 145.945312 133.691406 146.066406 133.675781 C 146.105469 133.671875 146.140625 133.671875 146.164062 133.667969 C 150.769531 134.511719 155.527344 133.214844 159.0625 130.140625 C 162.507812 127.140625 165.496094 124.148438 168.296875 121.453125 C 170.390625 119.429688 172.371094 117.574219 174.265625 115.984375 C 175.683594 114.789062 177.050781 113.746094 178.371094 112.867188 C 180.351562 111.546875 182.195312 110.613281 184.046875 109.984375 C 184.21875 109.925781 184.390625 109.871094 184.5625 109.816406 C 185.894531 111.621094 187.179688 113.765625 188.292969 116.074219 C 189.644531 118.859375 190.75 121.886719 191.5 124.792969 C 191.917969 126.351562 192.238281 128.621094 192.226562 130.367188 C 192.238281 131.601562 192.0625 132.582031 191.992188 132.785156 C 191.375 134.960938 190.492188 136.863281 189.386719 138.5625 C 187.726562 141.109375 185.554688 143.21875 182.886719 144.882812 C 180.222656 146.542969 177.0625 147.730469 173.527344 148.277344 C 170.976562 148.675781 168.480469 149.082031 165.757812 149.78125 C 163.722656 150.316406 161.527344 151.015625 159.144531 152.226562 C 157.363281 153.128906 155.476562 154.347656 153.714844 155.980469 C 152.394531 157.195312 151.164062 158.640625 150.148438 160.207031 C 148.613281 162.566406 147.597656 165.152344 147.023438 167.589844 C 146.445312 170.042969 146.257812 172.355469 146.253906 174.582031 C 146.253906 175.949219 146.328125 177.285156 146.453125 178.628906 C 146.785156 182.105469 147.375 185.253906 147.9375 188.132812 C 148.507812 191.007812 149.054688 193.609375 149.402344 195.75 C 149.90625 198.832031 150.441406 201.648438 150.921875 204.257812 C 151.40625 206.871094 151.839844 209.269531 152.175781 211.570312 C 152.539062 214.046875 152.757812 216.84375 152.925781 219.867188 C 153.054688 222.136719 153.160156 224.535156 153.3125 227.042969 C 153.550781 230.808594 153.882812 234.828125 154.773438 239.132812 C 155.226562 241.285156 155.828125 243.511719 156.675781 245.785156 C 157.527344 248.054688 158.632812 250.378906 160.085938 252.640625 C 160.359375 253.0625 160.648438 253.46875 160.957031 253.859375 C 159.882812 255.867188 159.007812 257.996094 158.347656 260.183594 C 157.585938 262.714844 157.105469 265.324219 156.890625 267.964844 L 156.890625 267.953125 C 156.824219 268.777344 156.789062 269.597656 156.789062 270.402344 C 156.785156 275.054688 157.894531 279.472656 159.707031 283.292969 C 161.066406 286.171875 162.808594 288.738281 164.808594 290.984375 C 167.8125 294.359375 171.390625 297.046875 175.398438 299.003906 C 179.402344 300.949219 183.875 302.171875 188.671875 302.324219 C 189.074219 302.339844 189.46875 302.34375 189.867188 302.34375 C 195.0625 302.339844 200.007812 301.316406 204.554688 299.578125 C 207.964844 298.269531 211.15625 296.550781 214.089844 294.472656 C 218.484375 291.34375 222.332031 287.402344 225.25 282.566406 C 226.703125 280.152344 227.910156 277.503906 228.761719 274.652344 C 229.613281 271.796875 230.097656 268.734375 230.097656 265.570312 C 230.101562 262.300781 229.570312 258.9375 228.492188 255.703125 C 227.417969 252.464844 225.804688 249.371094 223.765625 246.542969 C 223.726562 246.492188 223.6875 246.4375 223.648438 246.382812 C 224.265625 245.214844 224.730469 244.097656 225.101562 243.042969 C 226.027344 240.363281 226.402344 238.046875 226.640625 235.914062 C 226.867188 233.785156 226.921875 231.839844 226.921875 230.03125 C 226.921875 227.984375 226.84375 226.121094 226.777344 224.546875 C 226.710938 222.988281 226.660156 221.691406 226.660156 221.0625 C 226.660156 220.90625 226.664062 220.796875 226.667969 220.753906 C 226.851562 215.65625 227.007812 210.996094 227.214844 206.691406 C 232.292969 204.277344 237.042969 201.464844 241.457031 198.40625 C 248.605469 193.453125 254.882812 187.855469 260.277344 182.117188 C 263.929688 178.234375 267.113281 173.875 269.875 169.167969 C 274.007812 162.101562 277.195312 154.242188 279.382812 145.867188 C 281.570312 137.496094 282.753906 128.605469 282.757812 119.484375 C 282.757812 110.667969 281.644531 101.632812 279.1875 92.703125 Z M 279.1875 92.703125 " clip-rule="nonzero"/></clipPath><clipPath id="96cd57a752"><path d="M 279.1875 92.703125 C 278.636719 90.734375 277.972656 89.230469 277.355469 87.953125 C 276.421875 86.046875 275.554688 84.632812 274.855469 83.4375 C 274.15625 82.257812 273.613281 81.316406 273.296875 80.671875 L 273.289062 80.660156 C 273.050781 80.183594 272.746094 79.519531 272.394531 78.730469 C 271.863281 77.542969 271.242188 76.082031 270.433594 74.410156 C 270.027344 73.570312 269.566406 72.671875 269.011719 71.707031 C 268.453125 70.742188 267.804688 69.707031 266.960938 68.589844 C 264.597656 65.480469 261.949219 62.726562 259.125 60.214844 C 254.886719 56.449219 250.25 53.226562 245.46875 50.433594 C 240.679688 47.644531 235.746094 45.300781 230.867188 43.417969 C 226.328125 41.679688 220.707031 39.382812 214.140625 37.472656 C 207.578125 35.566406 200 34.050781 191.59375 34.050781 C 189.21875 34.050781 186.78125 34.171875 184.292969 34.4375 C 180.066406 34.898438 176.457031 35.878906 173.257812 36.832031 C 170.070312 37.792969 167.28125 38.757812 165.070312 39.40625 L 165.078125 39.40625 C 161.367188 40.503906 158.050781 41.945312 155.058594 43.449219 C 152.070312 44.960938 149.40625 46.546875 147.109375 48.003906 C 141.3125 51.695312 135.96875 56.171875 131.070312 60.90625 C 126.179688 65.644531 121.789062 70.628906 118.144531 75.445312 C 114.972656 79.644531 111.984375 84.375 109.570312 89.765625 C 107.152344 95.152344 105.339844 101.171875 104.347656 107.761719 C 103.613281 112.65625 105.292969 117.65625 108.839844 121.109375 C 110.074219 122.3125 111.308594 123.277344 112.367188 124.019531 C 113.96875 125.132812 115.132812 125.78125 115.738281 126.164062 C 116.015625 126.332031 116.1875 126.445312 116.285156 126.511719 C 116.390625 126.628906 116.578125 126.839844 116.847656 127.152344 C 117.183594 127.535156 117.644531 128.074219 118.289062 128.746094 C 118.773438 129.25 119.359375 129.832031 120.085938 130.453125 C 121.167969 131.386719 122.578125 132.421875 124.304688 133.3125 C 126.023438 134.203125 128.050781 134.914062 130.109375 135.28125 L 130.121094 135.285156 C 131.613281 135.554688 133.03125 135.65625 134.324219 135.65625 C 136.660156 135.652344 138.558594 135.34375 140.078125 135.042969 C 141.222656 134.8125 142.167969 134.574219 142.957031 134.375 C 144.136719 134.074219 144.964844 133.871094 145.496094 133.769531 C 145.757812 133.71875 145.945312 133.691406 146.066406 133.675781 C 146.105469 133.675781 146.140625 133.671875 146.164062 133.667969 C 150.769531 134.511719 155.527344 133.214844 159.0625 130.140625 C 162.507812 127.144531 165.496094 124.148438 168.296875 121.449219 C 170.390625 119.429688 172.371094 117.574219 174.265625 115.984375 C 175.683594 114.789062 177.050781 113.746094 178.371094 112.867188 C 180.351562 111.550781 182.195312 110.613281 184.046875 109.984375 C 184.21875 109.925781 184.390625 109.871094 184.5625 109.816406 C 185.890625 111.621094 187.179688 113.765625 188.292969 116.074219 C 189.644531 118.859375 190.75 121.886719 191.5 124.792969 C 191.917969 126.351562 192.238281 128.621094 192.226562 130.367188 C 192.238281 131.605469 192.0625 132.582031 191.992188 132.785156 C 191.375 134.960938 190.492188 136.863281 189.386719 138.5625 C 187.726562 141.109375 185.554688 143.21875 182.886719 144.882812 C 180.222656 146.542969 177.0625 147.730469 173.523438 148.277344 C 170.976562 148.675781 168.480469 149.082031 165.757812 149.78125 C 163.722656 150.316406 161.527344 151.019531 159.144531 152.226562 C 157.363281 153.128906 155.476562 154.351562 153.714844 155.980469 C 152.394531 157.195312 151.164062 158.640625 150.148438 160.210938 C 148.613281 162.566406 147.597656 165.152344 147.023438 167.589844 C 146.445312 170.042969 146.257812 172.359375 146.253906 174.582031 C 146.253906 175.949219 146.328125 177.289062 146.453125 178.628906 C 146.785156 182.105469 147.375 185.253906 147.9375 188.132812 C 148.507812 191.007812 149.054688 193.609375 149.402344 195.75 C 149.90625 198.832031 150.441406 201.648438 150.921875 204.257812 C 151.40625 206.871094 151.839844 209.269531 152.175781 211.570312 C 152.539062 214.046875 152.757812 216.84375 152.925781 219.867188 C 153.054688 222.136719 153.160156 224.535156 153.3125 227.042969 C 153.550781 230.808594 153.882812 234.828125 154.773438 239.132812 C 155.226562 241.285156 155.828125 243.511719 156.675781 245.785156 C 157.527344 248.054688 158.632812 250.378906 160.085938 252.640625 C 160.359375 253.0625 160.648438 253.46875 160.957031 253.859375 C 159.882812 255.867188 159.007812 257.996094 158.347656 260.183594 C 157.585938 262.714844 157.105469 265.328125 156.890625 267.964844 L 156.890625 267.953125 C 156.824219 268.777344 156.789062 269.597656 156.789062 270.402344 C 156.785156 275.054688 157.894531 279.472656 159.707031 283.292969 C 161.066406 286.171875 162.808594 288.738281 164.804688 290.984375 C 167.8125 294.359375 171.390625 297.046875 175.394531 299.003906 C 179.402344 300.949219 183.875 302.171875 188.671875 302.324219 C 189.074219 302.339844 189.46875 302.34375 189.863281 302.34375 C 195.058594 302.339844 200.007812 301.316406 204.554688 299.578125 C 207.964844 298.269531 211.15625 296.550781 214.089844 294.472656 C 218.484375 291.34375 222.332031 287.402344 225.25 282.566406 C 226.703125 280.152344 227.910156 277.503906 228.761719 274.652344 C 229.613281 271.796875 230.097656 268.734375 230.097656 265.570312 C 230.101562 262.300781 229.570312 258.9375 228.492188 255.703125 C 227.417969 252.464844 225.804688 249.371094 223.765625 246.546875 C 223.726562 246.492188 223.6875 246.4375 223.648438 246.382812 C 224.265625 245.214844 224.730469 244.097656 225.101562 243.042969 C 226.023438 240.363281 226.398438 238.046875 226.640625 235.914062 C 226.867188 233.785156 226.921875 231.839844 226.921875 230.03125 C 226.921875 227.984375 226.84375 226.121094 226.777344 224.546875 C 226.710938 222.988281 226.660156 221.691406 226.660156 221.0625 C 226.660156 220.90625 226.664062 220.796875 226.664062 220.753906 C 226.851562 215.65625 227.007812 210.996094 227.214844 206.691406 C 232.292969 204.277344 237.042969 201.464844 241.457031 198.40625 C 248.605469 193.453125 254.878906 187.855469 260.277344 182.121094 C 263.929688 178.234375 267.113281 173.875 269.875 169.167969 C 274.007812 162.101562 277.195312 154.242188 279.386719 145.871094 C 281.570312 137.496094 282.753906 128.605469 282.757812 119.484375 C 282.757812 110.667969 281.644531 101.632812 279.1875 92.703125 " clip-rule="nonzero"/></clipPath><clipPath id="f820c99bfb"><path d="M 190.351562 391.566406 L 416.839844 172.878906 L 196.582031 -55.171875 L -29.902344 163.515625 Z M 190.351562 391.566406 " clip-rule="nonzero"/></clipPath><linearGradient x1="-0.233801" gradientTransform="matrix(-157.122784, -162.684489, 162.705409, -157.10258, 272.79125, 238.459655)" y1="0" x2="1.168001" gradientUnits="userSpaceOnUse" y2="0" id="0260837db3"><stop stop-opacity="1" stop-color="rgb(100%, 100%, 100%)" offset="0"/><stop stop-opacity="1" stop-color="rgb(100%, 100%, 100%)" offset="0.125"/><stop stop-opacity="1" stop-color="rgb(100%, 100%, 100%)" offset="0.1875"/><stop stop-opacity="1" stop-color="rgb(99.900818%, 99.900818%, 99.900818%)" offset="0.203125"/><stop stop-opacity="1" stop-color="rgb(99.702454%, 99.702454%, 99.702454%)" offset="0.21875"/><stop stop-opacity="1" stop-color="rgb(99.499512%, 99.499512%, 99.499512%)" offset="0.234375"/><stop stop-opacity="1" stop-color="rgb(99.298096%, 99.298096%, 99.298096%)" offset="0.25"/><stop stop-opacity="1" stop-color="rgb(99.09668%, 99.09668%, 99.09668%)" offset="0.265625"/><stop stop-opacity="1" stop-color="rgb(98.895264%, 98.895264%, 98.895264%)" offset="0.28125"/><stop stop-opacity="1" stop-color="rgb(98.599243%, 98.599243%, 98.599243%)" offset="0.3125"/><stop stop-opacity="1" stop-color="rgb(98.303223%, 98.303223%, 98.303223%)" offset="0.328125"/><stop stop-opacity="1" stop-color="rgb(98.101807%, 98.101807%, 98.101807%)" offset="0.34375"/><stop stop-opacity="1" stop-color="rgb(97.900391%, 97.900391%, 97.900391%)" offset="0.359375"/><stop stop-opacity="1" stop-color="rgb(97.698975%, 97.698975%, 97.698975%)" offset="0.375"/><stop stop-opacity="1" stop-color="rgb(97.445679%, 97.445679%, 97.445679%)" offset="0.40625"/><stop stop-opacity="1" stop-color="rgb(97.099304%, 97.099304%, 97.099304%)" offset="0.4375"/><stop stop-opacity="1" stop-color="rgb(96.90094%, 96.90094%, 96.90094%)" offset="0.46875"/><stop stop-opacity="1" stop-color="rgb(96.798706%, 96.798706%, 96.798706%)" offset="0.484375"/><stop stop-opacity="1" stop-color="rgb(96.598816%, 96.598816%, 96.598816%)" offset="0.5"/><stop stop-opacity="1" stop-color="rgb(96.3974%, 96.3974%, 96.3974%)" offset="0.515625"/><stop stop-opacity="1" stop-color="rgb(96.195984%, 96.195984%, 96.195984%)" offset="0.53125"/><stop stop-opacity="1" stop-color="rgb(95.899963%, 95.899963%, 95.899963%)" offset="0.5625"/><stop stop-opacity="1" stop-color="rgb(95.603943%, 95.603943%, 95.603943%)" offset="0.578125"/><stop stop-opacity="1" stop-color="rgb(95.402527%, 95.402527%, 95.402527%)" offset="0.59375"/><stop stop-opacity="1" stop-color="rgb(95.201111%, 95.201111%, 95.201111%)" offset="0.609375"/><stop stop-opacity="1" stop-color="rgb(94.999695%, 94.999695%, 94.999695%)" offset="0.625"/><stop stop-opacity="1" stop-color="rgb(94.798279%, 94.798279%, 94.798279%)" offset="0.640625"/><stop stop-opacity="1" stop-color="rgb(94.596863%, 94.596863%, 94.596863%)" offset="0.65625"/><stop stop-opacity="1" stop-color="rgb(94.300842%, 94.300842%, 94.300842%)" offset="0.6875"/><stop stop-opacity="1" stop-color="rgb(94.004822%, 94.004822%, 94.004822%)" offset="0.703125"/><stop stop-opacity="1" stop-color="rgb(93.803406%, 93.803406%, 93.803406%)" offset="0.71875"/><stop stop-opacity="1" stop-color="rgb(93.600464%, 93.600464%, 93.600464%)" offset="0.734375"/><stop stop-opacity="1" stop-color="rgb(93.399048%, 93.399048%, 93.399048%)" offset="0.75"/><stop stop-opacity="1" stop-color="rgb(93.197632%, 93.197632%, 93.197632%)" offset="0.765625"/><stop stop-opacity="1" stop-color="rgb(92.996216%, 92.996216%, 92.996216%)" offset="0.78125"/><stop stop-opacity="1" stop-color="rgb(92.700195%, 92.700195%, 92.700195%)" offset="0.8125"/><stop stop-opacity="1" stop-color="rgb(92.352295%, 92.352295%, 92.352295%)" offset="0.875"/><stop stop-opacity="1" stop-color="rgb(92.098999%, 92.098999%, 92.098999%)" offset="0.9375"/><stop stop-opacity="1" stop-color="rgb(91.899109%, 91.899109%, 91.899109%)" offset="1"/></linearGradient></defs><g fill="#000000" fill-opacity="1"><g transform="translate(189.435926, 183.347041)"><g><path d="M 8.03125 0.375 C 6.289062 0.375 4.960938 -0.09375 4.046875 -1.03125 C 3.128906 -1.976562 2.671875 -3.410156 2.671875 -5.328125 L 2.671875 -27.109375 L 7.53125 -27.109375 L 7.53125 -5.53125 C 7.53125 -4.34375 8.019531 -3.75 9 -3.75 C 9.28125 -3.75 9.578125 -3.796875 9.890625 -3.890625 L 10.140625 -3.828125 L 10.578125 -0.09375 C 10.304688 0.0507812 9.945312 0.164062 9.5 0.25 C 9.0625 0.332031 8.570312 0.375 8.03125 0.375 Z M 8.03125 0.375 "/></g></g></g><g clip-path="url(#6dc06d6f15)"><path fill="#b7b7b7" d="M 282.269531 96.816406 C 281.722656 94.847656 281.058594 93.339844 280.441406 92.0625 C 279.503906 90.160156 278.640625 88.742188 277.941406 87.550781 C 277.238281 86.367188 276.699219 85.429688 276.382812 84.785156 L 276.375 84.773438 C 276.136719 84.292969 275.832031 83.632812 275.480469 82.84375 C 274.949219 81.65625 274.328125 80.195312 273.519531 78.519531 C 273.109375 77.679688 272.652344 76.785156 272.097656 75.820312 C 271.539062 74.855469 270.890625 73.820312 270.042969 72.703125 C 267.683594 69.59375 265.03125 66.835938 262.210938 64.324219 C 257.96875 60.5625 253.335938 57.339844 248.550781 54.546875 C 243.765625 51.757812 238.832031 49.414062 233.953125 47.53125 C 229.414062 45.789062 223.789062 43.496094 217.226562 41.585938 C 210.660156 39.679688 203.085938 38.164062 194.675781 38.164062 C 192.300781 38.164062 189.863281 38.285156 187.378906 38.550781 C 183.152344 39.011719 179.542969 39.992188 176.339844 40.945312 C 173.152344 41.90625 170.367188 42.867188 168.152344 43.519531 L 168.160156 43.515625 C 164.449219 44.617188 161.136719 46.058594 158.144531 47.5625 C 155.15625 49.070312 152.492188 50.660156 150.195312 52.117188 C 144.398438 55.808594 139.050781 60.28125 134.152344 65.019531 C 129.265625 69.757812 124.871094 74.742188 121.230469 79.558594 C 118.058594 83.757812 115.070312 88.488281 112.65625 93.878906 C 110.238281 99.265625 108.421875 105.285156 107.433594 111.875 C 106.695312 116.769531 108.378906 121.765625 111.921875 125.21875 C 113.160156 126.425781 114.394531 127.390625 115.453125 128.132812 C 117.050781 129.246094 118.214844 129.890625 118.824219 130.273438 C 119.101562 130.441406 119.273438 130.554688 119.371094 130.621094 C 119.476562 130.742188 119.664062 130.953125 119.933594 131.265625 C 120.265625 131.648438 120.730469 132.1875 121.375 132.859375 C 121.859375 133.363281 122.445312 133.945312 123.171875 134.566406 C 124.253906 135.5 125.660156 136.535156 127.386719 137.425781 C 129.109375 138.316406 131.136719 139.027344 133.195312 139.394531 L 133.203125 139.398438 C 134.699219 139.667969 136.117188 139.769531 137.40625 139.769531 C 139.742188 139.765625 141.640625 139.457031 143.164062 139.15625 C 144.308594 138.925781 145.253906 138.6875 146.042969 138.488281 C 147.222656 138.1875 148.050781 137.980469 148.578125 137.882812 C 148.84375 137.832031 149.03125 137.804688 149.148438 137.789062 C 149.191406 137.789062 149.226562 137.785156 149.25 137.78125 C 153.851562 138.625 158.609375 137.324219 162.148438 134.253906 C 165.589844 131.257812 168.582031 128.261719 171.378906 125.5625 C 173.476562 123.542969 175.457031 121.683594 177.347656 120.09375 C 178.769531 118.902344 180.136719 117.859375 181.453125 116.980469 C 183.433594 115.660156 185.28125 114.726562 187.128906 114.097656 C 187.300781 114.039062 187.472656 113.984375 187.648438 113.929688 C 188.976562 115.734375 190.265625 117.875 191.378906 120.1875 C 192.730469 122.972656 193.835938 126 194.585938 128.902344 C 195.003906 130.464844 195.324219 132.730469 195.3125 134.480469 C 195.320312 135.714844 195.148438 136.691406 195.078125 136.898438 C 194.460938 139.074219 193.578125 140.976562 192.472656 142.675781 C 190.8125 145.222656 188.640625 147.332031 185.972656 148.996094 C 183.308594 150.652344 180.148438 151.84375 176.609375 152.390625 C 174.0625 152.789062 171.566406 153.195312 168.84375 153.894531 C 166.804688 154.429688 164.613281 155.128906 162.226562 156.339844 C 160.449219 157.242188 158.5625 158.460938 156.800781 160.089844 C 155.480469 161.308594 154.25 162.75 153.234375 164.320312 C 151.699219 166.675781 150.683594 169.265625 150.109375 171.703125 C 149.527344 174.15625 149.339844 176.46875 149.339844 178.691406 C 149.339844 180.058594 149.414062 181.398438 149.539062 182.738281 C 149.871094 186.214844 150.460938 189.367188 151.023438 192.246094 C 151.589844 195.121094 152.140625 197.722656 152.484375 199.863281 C 152.988281 202.945312 153.523438 205.761719 154.007812 208.371094 C 154.492188 210.980469 154.925781 213.382812 155.257812 215.683594 C 155.625 218.160156 155.84375 220.957031 156.011719 223.980469 C 156.140625 226.25 156.242188 228.644531 156.398438 231.15625 C 156.636719 234.921875 156.964844 238.941406 157.859375 243.246094 C 158.308594 245.398438 158.910156 247.625 159.761719 249.898438 C 160.613281 252.167969 161.71875 254.492188 163.171875 256.753906 C 163.441406 257.175781 163.734375 257.582031 164.039062 257.972656 C 162.964844 259.980469 162.09375 262.105469 161.433594 264.296875 C 160.671875 266.828125 160.191406 269.4375 159.976562 272.074219 L 159.976562 272.0625 C 159.90625 272.890625 159.875 273.710938 159.875 274.515625 C 159.871094 279.167969 160.980469 283.582031 162.792969 287.40625 C 164.148438 290.28125 165.890625 292.847656 167.890625 295.097656 C 170.898438 298.472656 174.472656 301.160156 178.480469 303.113281 C 182.488281 305.058594 186.960938 306.285156 191.753906 306.4375 C 192.15625 306.449219 192.554688 306.457031 192.949219 306.457031 C 198.144531 306.453125 203.09375 305.429688 207.636719 303.691406 C 211.046875 302.382812 214.242188 300.664062 217.175781 298.582031 C 221.570312 295.457031 225.417969 291.511719 228.335938 286.679688 C 229.789062 284.261719 230.996094 281.617188 231.847656 278.761719 C 232.695312 275.910156 233.183594 272.84375 233.183594 269.683594 C 233.1875 266.414062 232.65625 263.046875 231.578125 259.8125 C 230.5 256.574219 228.890625 253.484375 226.851562 250.65625 C 226.8125 250.601562 226.769531 250.550781 226.730469 250.496094 C 227.351562 249.328125 227.8125 248.207031 228.183594 247.15625 C 229.109375 244.476562 229.484375 242.160156 229.722656 240.027344 C 229.949219 237.898438 230.003906 235.953125 230.007812 234.144531 C 230.007812 232.097656 229.929688 230.230469 229.863281 228.660156 C 229.792969 227.101562 229.742188 225.804688 229.746094 225.175781 C 229.746094 225.015625 229.75 224.90625 229.75 224.867188 C 229.9375 219.769531 230.089844 215.109375 230.300781 210.804688 C 235.378906 208.390625 240.128906 205.574219 244.542969 202.519531 C 251.6875 197.566406 257.964844 191.96875 263.363281 186.230469 C 267.015625 182.347656 270.199219 177.988281 272.957031 173.28125 C 277.09375 166.214844 280.277344 158.355469 282.46875 149.980469 C 284.65625 141.609375 285.839844 132.71875 285.839844 123.597656 C 285.839844 114.78125 284.730469 105.746094 282.269531 96.816406 " fill-opacity="1" fill-rule="nonzero"/></g><g clip-path="url(#e595856104)"><g clip-path="url(#6ec1b41431)"><g clip-path="url(#96cd57a752)"><g clip-path="url(#f820c99bfb)"><path fill="url(#0260837db3)" d="M 190.351562 391.566406 L 416.839844 172.878906 L 196.582031 -55.171875 L -29.902344 163.515625 Z M 190.351562 391.566406 " fill-rule="nonzero"/></g></g></g></g><path fill="#000000" d="M 140.503906 113.679688 C 142.648438 113.679688 144.792969 113.679688 146.9375 113.679688 C 155.644531 103.09375 166.066406 94.21875 177.890625 86.746094 C 157.324219 86.035156 148.035156 100.023438 140.503906 113.679688 Z M 252.660156 122.921875 C 252.089844 136.820312 246.585938 148.332031 241.003906 157.085938 C 236.265625 164.507812 232.328125 169.835938 225.726562 175.171875 C 217.214844 182.058594 205.621094 187.410156 193.96875 189.644531 C 195.058594 206.375 196.777344 222.472656 198.390625 238.679688 C 201.671875 238.742188 203.78125 237.640625 206.027344 236.671875 C 206.148438 221.589844 204.933594 205.65625 206.027344 192.859375 C 221.546875 186.839844 237.457031 177.917969 248.234375 164.324219 C 250.273438 161.753906 252.78125 158.164062 254.269531 155.078125 C 267.433594 127.757812 260.761719 86.363281 238.992188 73.082031 C 247.027344 86.441406 253.414062 104.507812 252.660156 122.921875 Z M 239.394531 155.476562 C 241.03125 152.953125 243.40625 150.324219 244.617188 147.839844 C 255.167969 126.28125 249.863281 96.257812 239.796875 77.5 C 235.148438 68.851562 227.804688 65.410156 218.894531 61.425781 C 213.570312 59.050781 207.664062 56.773438 202.8125 55.800781 C 190.105469 53.242188 179.171875 55.910156 169.847656 59.417969 C 159.183594 63.429688 145.851562 74.324219 138.496094 83.128906 C 132.828125 89.910156 127.402344 97.898438 126.433594 107.644531 C 129.175781 110.027344 132.242188 114.128906 135.679688 114.480469 C 139.332031 111.96875 141.144531 107.175781 144.121094 103.226562 C 147.128906 99.238281 150.578125 95.476562 153.769531 91.972656 C 155 91.058594 156.523438 90.4375 157.386719 89.160156 C 171.195312 82.550781 188.214844 82.382812 197.988281 91.972656 C 208.265625 102.054688 214.765625 123.460938 211.253906 139.402344 C 205.582031 152.6875 196.8125 163.621094 182.3125 167.136719 C 177.648438 168.265625 170.46875 167.632812 168.242188 170.351562 C 166.097656 172.964844 167.902344 179.484375 168.644531 184.019531 C 171.53125 201.71875 173.339844 221.429688 175.878906 237.476562 C 183.457031 239.253906 188.835938 238.71875 195.976562 239.082031 C 194.738281 224.722656 193.136719 204.3125 191.152344 187.636719 C 214.296875 184.1875 229.125 171.304688 239.394531 155.476562 Z M 212.460938 196.074219 C 211.808594 203.453125 211.582031 211.28125 211.253906 220.191406 C 211.0625 225.371094 212.878906 237.175781 208.84375 240.691406 C 201.214844 247.335938 185.726562 243.1875 173.066406 244.308594 C 167.492188 235.628906 169.316406 222.179688 167.4375 209.339844 C 166.664062 204.050781 165.550781 198.945312 164.625 193.261719 C 163.757812 187.980469 162.289062 182.289062 161.808594 177.183594 C 160.816406 166.601562 165.421875 165.132812 175.878906 163.519531 C 190.570312 161.25 202.691406 151.585938 206.832031 136.992188 C 208.214844 132.109375 207.683594 125.742188 206.429688 120.914062 C 203.730469 110.53125 198.015625 99.851562 190.351562 93.582031 C 171.085938 93.472656 160.589844 108.382812 148.945312 118.5 C 142.5625 117.261719 137.492188 120.945312 132.867188 120.109375 C 129.859375 119.5625 128.746094 116.878906 126.433594 114.882812 C 124.125 112.890625 121.699219 112.105469 119.601562 110.0625 C 121.1875 99.542969 125.1875 91.714844 130.457031 84.738281 C 136.671875 76.503906 146.1875 66.859375 155.378906 61.023438 C 159.386719 58.476562 164.363281 55.695312 169.445312 54.195312 C 174.796875 52.609375 180.601562 50.335938 185.929688 49.769531 C 201.46875 48.117188 214.59375 53.675781 225.324219 57.808594 C 236.265625 62.023438 248.160156 69.320312 254.667969 77.902344 C 256.480469 80.296875 257.855469 84.273438 259.492188 87.550781 C 261.210938 90.996094 263.578125 94.125 264.316406 96.796875 C 272.078125 124.984375 264.109375 155.535156 249.042969 171.554688 C 239.582031 181.613281 227.046875 191.125 212.460938 196.074219 " fill-opacity="1" fill-rule="evenodd"/><path fill="#ffe000" d="M 197.585938 172.761719 C 198.210938 173.246094 199.152344 174.046875 200 173.164062 C 199.625 172.464844 200.011719 171.007812 198.792969 171.15625 C 198.671875 171.972656 197.988281 172.226562 197.585938 172.761719 Z M 189.546875 171.957031 C 189.726562 174.414062 191.464844 174.652344 193.164062 173.96875 C 193.390625 172 191.601562 172.046875 190.753906 171.15625 C 190.585938 171.660156 190.234375 171.976562 189.546875 171.957031 Z M 211.65625 77.90625 C 210.320312 77.363281 210.425781 75.382812 208.4375 75.496094 C 206.800781 77.503906 210.511719 79.839844 211.65625 77.90625 Z M 214.070312 73.886719 C 215.539062 73.972656 215.609375 74.4375 216.882812 73.886719 C 216.914062 72.378906 215.148438 72.671875 215.675781 70.671875 C 215.140625 70.671875 214.605469 70.671875 214.070312 70.671875 C 213.269531 71.460938 213.8125 72.964844 214.070312 73.886719 Z M 191.152344 187.636719 C 193.136719 204.3125 194.738281 224.726562 195.976562 239.082031 C 188.835938 238.71875 183.457031 239.253906 175.878906 237.476562 C 173.339844 221.429688 171.53125 201.722656 168.644531 184.019531 C 167.902344 179.484375 166.097656 172.964844 168.242188 170.351562 C 170.46875 167.632812 177.648438 168.265625 182.3125 167.136719 C 196.8125 163.621094 205.582031 152.6875 211.253906 139.402344 C 214.765625 123.460938 208.265625 102.058594 197.988281 91.972656 C 188.210938 82.382812 171.195312 82.550781 157.386719 89.160156 C 156.523438 90.4375 155 91.058594 153.769531 91.972656 C 150.578125 95.476562 147.128906 99.242188 144.121094 103.230469 C 141.144531 107.175781 139.332031 111.96875 135.679688 114.480469 C 132.242188 114.128906 129.175781 110.03125 126.433594 107.648438 C 127.402344 97.898438 132.828125 89.914062 138.496094 83.132812 C 145.851562 74.328125 159.183594 63.429688 169.847656 59.417969 C 179.171875 55.910156 190.105469 53.246094 202.8125 55.796875 C 207.664062 56.773438 213.570312 59.050781 218.890625 61.425781 C 227.804688 65.410156 235.148438 68.851562 239.792969 77.503906 C 249.863281 96.257812 255.167969 126.28125 244.617188 147.839844 C 243.402344 150.324219 241.03125 152.953125 239.394531 155.480469 C 229.125 171.308594 214.296875 184.1875 191.152344 187.636719 " fill-opacity="1" fill-rule="evenodd"/><path fill="#000000" d="M 214.070312 70.671875 C 214.605469 70.671875 215.140625 70.671875 215.675781 70.671875 C 215.148438 72.671875 216.914062 72.378906 216.882812 73.886719 C 215.609375 74.4375 215.539062 73.972656 214.070312 73.886719 C 213.8125 72.964844 213.269531 71.460938 214.070312 70.671875 " fill-opacity="1" fill-rule="evenodd"/><path fill="#000000" d="M 208.441406 75.492188 C 210.425781 75.382812 210.320312 77.363281 211.65625 77.902344 C 210.511719 79.835938 206.800781 77.5 208.441406 75.492188 " fill-opacity="1" fill-rule="evenodd"/><path fill="#ff3600" d="M 177.890625 86.75 C 166.066406 94.21875 155.644531 103.09375 146.9375 113.679688 C 144.792969 113.679688 142.648438 113.679688 140.503906 113.679688 C 148.035156 100.023438 157.324219 86.035156 177.890625 86.75 " fill-opacity="1" fill-rule="evenodd"/><path fill="#000000" d="M 190.753906 171.15625 C 191.605469 172.046875 193.390625 172 193.164062 173.96875 C 191.464844 174.652344 189.726562 174.414062 189.546875 171.957031 C 190.234375 171.976562 190.589844 171.660156 190.753906 171.15625 " fill-opacity="1" fill-rule="evenodd"/><path fill="#000000" d="M 198.792969 171.15625 C 200.011719 171.007812 199.625 172.464844 200 173.164062 C 199.152344 174.046875 198.210938 173.246094 197.585938 172.761719 C 197.988281 172.226562 198.671875 171.972656 198.792969 171.15625 " fill-opacity="1" fill-rule="evenodd"/><path fill="#ff3600" d="M 203.214844 277.265625 C 206.144531 269.375 203.902344 255.726562 194.371094 254.355469 C 208.609375 250.882812 213.457031 269.609375 203.214844 277.265625 " fill-opacity="1" fill-rule="evenodd"/><path fill="#ffe000" d="M 189.546875 255.960938 C 189.472656 255.621094 189.703125 255.582031 189.949219 255.558594 C 195.378906 257.027344 199.820312 258.867188 201.605469 263.199219 C 206.945312 276.132812 191.699219 288.398438 180.300781 278.46875 C 176.378906 272.316406 177.183594 264.453125 182.3125 259.984375 C 185.476562 260.253906 186.484375 256.898438 189.546875 255.960938 " fill-opacity="1" fill-rule="evenodd"/><path fill="#ff3600" d="M 238.992188 73.082031 C 260.761719 86.363281 267.433594 127.757812 254.265625 155.074219 C 252.78125 158.164062 250.273438 161.75 248.234375 164.324219 C 237.457031 177.917969 221.546875 186.839844 206.027344 192.859375 C 204.933594 205.65625 206.148438 221.589844 206.027344 236.671875 C 203.78125 237.640625 201.671875 238.742188 198.390625 238.679688 C 196.777344 222.472656 195.058594 206.375 193.96875 189.644531 C 205.621094 187.410156 217.214844 182.058594 225.726562 175.171875 C 232.324219 169.835938 236.265625 164.511719 241.003906 157.089844 C 246.585938 148.332031 252.089844 136.820312 252.660156 122.921875 C 253.414062 104.511719 247.027344 86.441406 238.992188 73.082031 " fill-opacity="1" fill-rule="evenodd"/><path fill="#000000" d="M 182.3125 259.984375 C 177.183594 264.453125 176.378906 272.316406 180.300781 278.46875 C 191.699219 288.398438 206.945312 276.132812 201.605469 263.199219 C 199.820312 258.867188 195.378906 257.027344 189.949219 255.558594 C 189.703125 255.582031 189.472656 255.621094 189.546875 255.960938 C 186.484375 256.898438 185.476562 260.253906 182.3125 259.984375 Z M 194.371094 254.355469 C 203.902344 255.726562 206.144531 269.375 203.214844 277.265625 C 213.457031 269.609375 208.609375 250.882812 194.371094 254.355469 Z M 195.175781 249.53125 C 199.859375 249.042969 207.929688 250.953125 211.253906 255.558594 C 221.957031 270.417969 205.585938 287.417969 189.144531 286.910156 C 180.207031 286.636719 171.484375 278.679688 172.261719 269.226562 C 173.210938 257.664062 181.945312 250.917969 195.175781 249.53125 " fill-opacity="1" fill-rule="evenodd"/></svg>