<?xml version="1.0" encoding="UTF-8"?>
<svg width="96px" height="96px" viewBox="0 0 96 96" version="1.1" xmlns="http://www.w3.org/2000/svg" xmlns:xlink="http://www.w3.org/1999/xlink">
    <title>Group 41</title>
    <g id="Page-2" stroke="none" stroke-width="1" fill="none" fill-rule="evenodd">
        <g id="Home---Desktop" transform="translate(-924.000000, -4936.000000)">
            <g id="Section-6" transform="translate(80.000000, 4909.000000)">
                <g id="Group-41" transform="translate(845.000000, 28.000000)">
                    <path d="M63.6672536,89.9298137 C62.5426683,89.761477 60.5210954,89.5264748 58.5278755,89.1447572 C55.2585104,88.5187711 52.1819461,88.8835006 49.2288464,90.4834716 C47.4083225,91.4700689 45.534701,92.3761014 43.6260248,93.1781461 C40.7912347,94.3696303 38.1350689,93.942611 35.7487726,91.9763661 C35.3827604,91.6746984 35.0038605,91.3853858 34.6636238,91.056949 C33.6820925,90.1097332 32.6593205,89.1970085 31.7571778,88.1782367 C29.154625,85.2392939 25.878816,83.7615858 22.0109437,83.3834716 C20.4834872,83.2344396 18.9696918,82.9000827 17.4651755,82.5778234 C13.994246,81.8339502 11.9677757,79.6051618 11.2336893,76.2077973 C10.7552959,73.9934231 10.427947,71.7458448 10.0454385,69.5111362 C9.6655076,67.2913567 8.7605296,65.3235674 7.2091019,63.6839574 C5.7966042,62.191063 4.33100895,60.7483607 2.91412942,59.2593272 C1.81841268,58.1077393 0.83095307,56.8642612 0.33065051,55.32658 C-0.32430509,53.314776 0.0600076999,51.3650044 0.90338224,49.5094396 C1.80990677,47.5151386 2.83577188,45.575148 3.78508375,43.5996368 C4.37792037,42.366712 4.91817497,41.0830801 4.92049476,39.7049841 C4.92307232,38.1552053 4.79058622,36.5997637 4.62330319,35.0569346 C4.42972914,33.2734405 4.05675758,31.5079641 3.89952699,29.7226683 C3.60078888,26.3271057 5.01174005,23.7786319 7.9751499,22.1086493 C9.2822258,21.3719831 10.5856931,20.6103496 11.955919,20.0088161 C15.7232669,18.3553068 18.3765974,15.6626915 20.0367977,11.9018845 C20.7201064,10.3546796 21.5879676,8.8792881 22.4723252,7.4327249 C24.2418137,4.53805406 26.947984,3.56793008 30.1998218,3.94372764 C32.3348069,4.19057001 34.4633481,4.50819617 36.5846722,4.85645241 C39.1168579,5.27214629 41.4923284,4.83663295 43.7734607,3.71927868 C45.830346,2.71183234 47.8622291,1.64415543 49.9621595,0.73554899 C52.9085576,-0.53933138 55.6992716,-0.17460182 58.1409852,1.96770169 C59.5501321,3.2044875 60.8324635,4.58515745 62.2282071,5.83867399 C63.356401,6.851783 64.5021222,7.8710696 65.7594513,8.7086348 C67.4931118,9.8633115 69.5628849,10.0599617 71.5679615,10.4092475 C73.4121989,10.7304772 75.275768,11.0046035 77.0767025,11.4967439 C79.7833883,12.2364988 81.6655158,13.9780374 82.3588769,16.7473565 C82.851189,18.7143737 83.2509671,20.7184557 83.4986697,22.7300023 C83.9146864,26.1062603 85.2488265,28.9630939 87.7320387,31.3051364 C88.981893,32.4840082 90.1835471,33.7197645 91.3426715,34.9884673 C92.5682968,36.3302705 93.5562719,37.8223928 93.7861894,39.6982919 C93.9568233,41.0913168 93.7145335,42.4359514 93.1603602,43.6904975 C92.3316777,45.5674261 91.3457646,47.374858 90.5170821,49.2517866 C89.9301738,50.5812349 89.3718764,51.9467185 89.0200407,53.3510688 C88.5919096,55.0594034 88.9220938,56.8053177 89.1574242,58.5316699 C89.4448211,60.6415416 89.787893,62.7514132 89.9167706,64.8728677 C90.0760632,67.4977879 88.9672009,69.6148667 86.7757675,71.0755866 C85.5467914,71.8948768 84.2237347,72.5738864 82.9341861,73.3002567 C82.4529575,73.5712943 81.9547169,73.8160775 81.4497748,74.0402691 C78.0051362,75.5681693 75.5729595,78.0764893 74.0032312,81.4980489 C73.2557416,83.1271056 72.3989638,84.7206417 71.4447546,86.237474 C69.7157337,88.9864589 67.8230383,89.9450001 63.6672536,89.9298137 Z" id="Stroke-4" stroke="#042768" stroke-width="1.5" fill="#F0F8FF"></path>
                    <path d="M63.6672536,89.9298137 C62.5426683,89.761477 60.5210954,89.5264748 58.5278755,89.1447572 C55.2585104,88.5187711 52.1819461,88.8835006 49.2288464,90.4834716 C47.4083225,91.4700689 45.534701,92.3761014 43.6260248,93.1781461 C40.7912347,94.3696303 38.1350689,93.942611 35.7487726,91.9763661 C35.3827604,91.6746984 35.0038605,91.3853858 34.6636238,91.056949 C33.6820925,90.1097332 32.6593205,89.1970085 31.7571778,88.1782367 C29.154625,85.2392939 25.878816,83.7615858 22.0109437,83.3834716 C20.4834872,83.2344396 18.9696918,82.9000827 17.4651755,82.5778234 C13.994246,81.8339502 11.9677757,79.6051618 11.2336893,76.2077973 C10.7552959,73.9934231 10.427947,71.7458448 10.0454385,69.5111362 C9.6655076,67.2913567 8.7605296,65.3235674 7.2091019,63.6839574 C5.7966042,62.191063 4.33100895,60.7483607 2.91412942,59.2593272 C1.81841268,58.1077393 0.83095307,56.8642612 0.33065051,55.32658 C-0.32430509,53.314776 0.0600076999,51.3650044 0.90338224,49.5094396 C1.80990677,47.5151386 2.83577188,45.575148 3.78508375,43.5996368 C4.37792037,42.366712 4.91817497,41.0830801 4.92049476,39.7049841 C4.92307232,38.1552053 4.79058622,36.5997637 4.62330319,35.0569346 C4.42972914,33.2734405 4.05675758,31.5079641 3.89952699,29.7226683 C3.60078888,26.3271057 5.01174005,23.7786319 7.9751499,22.1086493 C9.2822258,21.3719831 10.5856931,20.6103496 11.955919,20.0088161 C15.7232669,18.3553068 18.3765974,15.6626915 20.0367977,11.9018845 C20.7201064,10.3546796 21.5879676,8.8792881 22.4723252,7.4327249 C24.2418137,4.53805406 26.947984,3.56793008 30.1998218,3.94372764 C32.3348069,4.19057001 34.4633481,4.50819617 36.5846722,4.85645241 C39.1168579,5.27214629 41.4923284,4.83663295 43.7734607,3.71927868 C45.830346,2.71183234 47.8622291,1.64415543 49.9621595,0.73554899 C52.9085576,-0.53933138 55.6992716,-0.17460182 58.1409852,1.96770169 C59.5501321,3.2044875 60.8324635,4.58515745 62.2282071,5.83867399 C63.356401,6.851783 64.5021222,7.8710696 65.7594513,8.7086348 C67.4931118,9.8633115 69.5628849,10.0599617 71.5679615,10.4092475 C73.4121989,10.7304772 75.275768,11.0046035 77.0767025,11.4967439 C79.7833883,12.2364988 81.6655158,13.9780374 82.3588769,16.7473565 C82.851189,18.7143737 83.2509671,20.7184557 83.4986697,22.7300023 C83.9146864,26.1062603 85.2488265,28.9630939 87.7320387,31.3051364 C88.981893,32.4840082 90.1835471,33.7197645 91.3426715,34.9884673 C92.5682968,36.3302705 93.5562719,37.8223928 93.7861894,39.6982919 C93.9568233,41.0913168 93.7145335,42.4359514 93.1603602,43.6904975 C92.3316777,45.5674261 91.3457646,47.374858 90.5170821,49.2517866 C89.9301738,50.5812349 89.3718764,51.9467185 89.0200407,53.3510688 C88.5919096,55.0594034 88.9220938,56.8053177 89.1574242,58.5316699 C89.4448211,60.6415416 89.787893,62.7514132 89.9167706,64.8728677 C90.0760632,67.4977879 88.9672009,69.6148667 86.7757675,71.0755866 C85.5467914,71.8948768 84.2237347,72.5738864 82.9341861,73.3002567 C82.4529575,73.5712943 81.9547169,73.8160775 81.4497748,74.0402691 C78.0051362,75.5681693 75.5729595,78.0764893 74.0032312,81.4980489 C73.2557416,83.1271056 72.3989638,84.7206417 71.4447546,86.237474 C69.7157337,88.9864589 67.8230383,89.9450001 63.6672536,89.9298137 Z" id="Stroke-4" opacity="0.800000012"></path>
                    <path d="M16.5637795,28.5917611 C18.4171223,29.3686276 20.2599826,30.1695388 22.1107687,30.9521066 C22.4334227,31.0884425 22.5167707,31.2567553 22.3702725,31.5733024 C21.6564454,33.1153849 21.9637592,32.8389949 20.6243106,32.3167046 C20.096866,32.1112093 19.5822048,31.8749765 18.8995692,31.5837135 C19.3209113,32.2125936 19.6540477,32.7011718 19.9777243,33.1954512 C20.3919077,33.8275538 20.1009567,34.4856842 19.3372741,34.6212764 C18.7323619,34.7288578 18.1220806,34.8069411 17.3451032,34.9236941 C18.2067069,35.291801 18.9184887,35.6214859 19.6512354,35.8998589 C20.1249895,36.0798222 20.2599826,36.2781289 20.0170973,36.7679465 C19.4147418,37.9825751 19.6755239,37.9047397 18.3976915,37.3695595 C16.8951262,36.7404314 15.39793,36.0986614 13.9096823,35.4383 C13.6522238,35.3240258 13.2311374,35.034498 13.261562,34.9229505 C13.3891407,34.4566819 13.4489672,33.882584 14.1364604,33.7767377 C15.2268876,33.6089207 16.3129685,33.4153238 17.4003277,33.229907 C17.5199807,33.2093327 17.6360543,33.1699192 17.8352202,33.1183595 C17.6120214,32.7616553 17.4233379,32.4488265 17.2234049,32.1429384 C16.8025742,31.4979458 16.373562,30.857911 15.9522199,30.2131663 C15.6022094,29.6777382 15.6308443,29.0810829 16.0711059,28.6467912 C16.1636579,28.5553222 16.4277638,28.5347479 16.5637795,28.5917611 Z M23.2870845,20.91 C25.2776824,20.9078982 27.0349927,22.6718227 27.03,24.6663049 C27.0247006,26.730007 25.2043182,28.5628883 23.1630515,28.56 C21.1455357,28.557098 19.3869059,26.8268623 19.38,24.8381704 C19.3726553,22.7513072 21.2017464,20.9123725 23.2870845,20.91 Z M23.0857287,22.8723763 C22.1037567,22.8839569 21.2729994,23.7024894 21.2735267,24.6576195 C21.2743189,25.7035514 22.2631523,26.6602607 23.3229749,26.6399948 C24.3038913,26.621308 25.11512,25.8022491 25.1140664,24.8315906 C25.1127449,23.7288088 24.2120541,22.8589534 23.0857287,22.8723763 Z M31.163402,14.3911983 C32.3503704,16.2728608 33.5107905,18.1707243 34.6754584,20.0659748 C34.6850157,20.0816531 34.6765203,20.1083063 34.6765203,20.1503765 C34.0778592,20.7150582 33.4664551,21.016605 32.564614,20.6651488 C31.4278217,20.2222356 30.2278448,19.9368898 28.9389316,19.6998855 C29.4014006,20.4466972 29.8774091,21.1861924 30.3181086,21.9455469 C30.4463362,22.1666115 30.6016429,22.6121378 30.5254497,22.6688412 C30.095635,22.9884181 29.6074143,23.2397942 29.1136185,23.4585071 C29.0557435,23.4838537 28.8146862,23.1804778 28.7026529,23.0027899 C27.7118755,21.4328651 26.7218946,19.8624176 25.7571344,18.2773371 C25.6060754,18.0293579 25.4321849,17.5258218 25.5269618,17.4487366 C25.9089899,17.1383054 26.2742926,16.6669099 26.9008292,16.8681153 C28.0753199,17.2451794 29.2519344,17.6154497 30.4285489,17.9857199 C30.6534119,18.0565337 30.8825225,18.1145436 31.2964083,18.231086 C30.7171274,17.3065863 30.2578443,16.5035938 29.726881,15.7497267 C29.3618438,15.2315575 29.3995422,14.9062319 29.9960794,14.6501522 C30.2166946,14.5555596 30.4009388,14.3629772 30.6263327,14.3002639 C30.7896039,14.2547967 31.0970316,14.2861534 31.163402,14.3911983 Z M39.5111374,11.6402623 C39.5478806,11.8295466 39.6168732,12.0144228 39.6863945,12.195669 C39.8338959,12.5799419 39.7252524,12.7858209 39.3015161,12.8996508 C38.3731557,13.1496097 37.4564262,13.4426113 36.456694,13.7413174 L36.5860222,14.2253211 C36.6296382,14.3886436 36.6750385,14.5586105 36.726056,14.7491912 C37.5666557,14.5114191 38.3673402,14.3109852 39.1484635,14.0542847 C39.5920253,13.9085617 39.7683397,14.0122791 39.8973374,14.4528187 C40.1949837,15.4700271 40.21851,15.4622483 39.1997454,15.7697703 C38.5737894,15.958536 37.949155,16.1506725 37.2401964,16.3666639 C37.3475183,16.7190438 37.4270845,16.9801523 37.5270048,17.3084179 C38.4759837,17.0322703 39.3890125,16.806685 40.2713779,16.4968293 C40.9459724,16.2600943 41.0559376,16.6446266 41.1844066,17.1201708 C41.3044168,17.5645998 41.5219682,17.9509471 40.7865756,18.1353048 C39.4268131,18.4762757 38.0887263,18.9038507 36.7501109,19.3213132 C36.2906888,19.4644432 36.0821249,19.354762 35.9465187,18.8927011 C35.3940491,17.0078967 34.8159385,15.1303526 34.2285761,13.25592 C34.0990497,12.8420876 34.1646059,12.6343936 34.6258784,12.5065619 C36.0197408,12.1202146 37.4027652,11.6952326 38.7865827,11.2746585 C39.1672316,11.1590136 39.4262844,11.2030935 39.5111374,11.6402623 Z M31.8968924,73.0596196 C32.0565565,72.9278768 32.4365263,72.8848219 32.6054018,72.985627 C32.9920242,73.2163703 33.6959279,73.1900733 33.6585706,73.8425997 C33.521935,76.2162902 33.330031,78.5866292 33.1496413,81.09 C32.5867231,80.8053737 32.1466234,80.6328963 31.7694682,80.3683795 C31.6144098,80.2595821 31.4915913,79.9306119 31.5330426,79.7416345 C31.6635372,79.1471161 31.4667717,78.8261381 30.9151119,78.6093168 C30.4220467,78.4154409 29.9535452,78.1491194 29.4942551,77.8799619 C29.1826032,77.6974298 28.9333839,77.7100627 28.717428,77.9949468 C28.3272233,78.5100585 27.8953115,78.4809256 27.4027581,78.1465412 C27.1443275,77.9709701 26.8513541,77.8467039 26.52,77.6706172 C26.6428185,77.5277884 26.709857,77.4251786 26.7991563,77.3493813 C28.4930283,75.9131013 30.1828065,74.4711494 31.8968924,73.0596196 Z M31.8052903,75.2198404 C31.3255304,75.6527095 30.8457706,76.0853209 30.3069043,76.5712997 C30.8201834,76.8329805 31.2316255,77.0428409 31.7515572,77.3081312 C31.8293422,76.5620184 31.8979159,75.906656 31.9662337,75.2512936 C31.9127565,75.2407233 31.8590234,75.2304107 31.8052903,75.2198404 Z M24.4080083,66.5044385 C24.7167864,66.8181799 25.0548201,67.1030099 25.461737,67.4751093 C24.6795522,68.373234 23.9497613,69.2060406 23.2266193,70.0447365 C23.0095969,70.2966398 22.789383,70.5501492 22.608797,70.8285545 C22.1803374,71.4892317 22.2521463,72.1274222 22.7840639,72.6395274 C23.3010878,73.1377122 24.0072084,73.2225723 24.5997646,72.7696283 C24.9997666,72.4641856 25.3335449,72.0650488 25.6734402,71.6862569 C26.3218478,70.9640094 26.9537659,70.2262354 27.6362161,69.4450944 C28.1229207,69.8739456 28.5479229,70.2484543 29.07,70.7083584 C27.9263772,71.9378925 26.8973826,73.1949994 25.7098766,74.2748907 C24.6843395,75.2078161 23.370503,75.1537413 22.1981566,74.3982992 C20.1420292,73.0737325 19.8196871,71.0526172 21.3837908,69.172043 C22.1220924,68.2838231 22.9029474,67.4312069 23.6471002,66.5475378 C23.9080057,66.2380796 24.1213047,66.2131838 24.4080083,66.5044385 Z M22.1344623,63.1831442 C22.7766207,64.6730066 22.3576256,66.2410762 21.3344177,66.9582818 C21.0096236,66.4762213 20.6864215,66.0415037 20.4213321,65.5743524 C20.3446446,65.4393859 20.4014305,65.2021483 20.4550322,65.0292552 C20.6988932,64.238289 20.4468062,63.4808028 19.742024,62.9566307 C19.1295853,62.5015112 18.1557334,62.5328988 17.4480324,63.030653 C16.7705817,63.5074822 16.4916939,64.2756925 16.7180415,65.042595 C16.9693324,65.8950285 17.6125523,66.4069071 18.5646451,66.43751 C18.3114967,66.0347031 18.1031932,65.6617144 17.8534944,65.3180207 C17.621309,64.9983908 17.6703996,64.8009108 17.9954592,64.5725664 C18.8538817,63.9699254 18.8437983,63.9573704 19.4326204,64.8404068 C19.9633299,65.6360812 20.4961622,66.4301862 21.0669402,67.283666 C19.9681062,68.0013947 18.9462252,68.6809352 17.9052386,69.3301343 C17.7967085,69.3978791 17.4740371,69.3416431 17.4212315,69.2487882 C17.2336258,68.9179112 17.1086437,68.5496306 16.989234,68.1860581 C16.9706592,68.129299 17.1046634,68.023366 17.2131934,67.8805526 C16.1509785,67.5674618 15.4185994,66.8955067 15.1012351,65.9292932 C14.8717033,65.2296124 14.7185936,64.4279221 14.8239395,63.7135938 C15.0696579,62.0463917 16.5644011,60.8547111 18.3536881,60.7006505 C19.8619644,60.5709153 21.4689526,61.6396614 22.1344623,63.1831442 Z M58.6405032,73.44 C59.3333163,75.6912249 60.0116582,77.896437 60.69,80.1016491 C59.936976,80.5536719 59.3010143,80.6368085 58.5663378,80.1113223 C57.5417187,79.3779945 56.4359569,78.7612671 55.2046049,77.9949983 C55.5927457,79.2736815 55.9240349,80.3651766 56.2889182,81.5683047 C55.7322903,81.7452969 55.2136495,81.9102629 54.5859572,82.11 C53.8946946,79.8668797 53.2153191,77.6624518 52.53,75.4389392 C53.2618339,75.0575041 53.8605837,74.8828649 54.589575,75.4235145 C55.6405526,76.2031164 56.7886946,76.8488632 58.0420119,77.6449356 C57.6523207,76.3521349 57.3104364,75.2188101 56.9378006,73.9832639 C57.4936533,73.8057489 58.0122941,73.6402599 58.6405032,73.44 Z M65.0328166,70.38 C65.3202557,70.847344 65.5782679,71.2671393 65.8793696,71.7568128 C65.2464254,72.1600579 64.6502649,72.5401854 64.0081247,72.94921 C64.9416453,74.4978289 65.8509936,76.0059919 66.81,77.5971682 C66.2973914,77.9082055 65.8239312,78.1955998 65.2569351,78.54 C64.3100147,76.9845509 63.3867411,75.4679815 62.4295739,73.8957195 C61.7926885,74.2750589 61.199681,74.628391 60.5231216,75.0316361 C60.2375216,74.5653429 59.9724155,74.1326753 59.67,73.6390612 C61.4755595,72.5417616 63.2220022,71.480452 65.0328166,70.38 Z M69.8038314,65.79 C70.2223979,66.2495937 70.5411839,66.5998889 70.8556205,66.9450564 C70.0827052,67.764121 69.2957183,68.5982984 68.4652373,69.4783543 C68.7658582,69.8156956 69.0053314,70.0842192 69.2885546,70.4018597 C70.0164407,69.6664558 70.7028795,68.973152 71.3964821,68.2722919 C71.8020004,68.6406685 72.1519997,68.9585789 72.4869041,69.2627258 C71.7518543,70.0623595 71.0889534,70.7834601 70.3741155,71.5612341 C70.6135888,71.8381238 70.8343852,72.0934237 71.1007224,72.4016187 C71.9437399,71.5577258 72.7534972,70.7467574 73.5824431,69.9168979 C73.9562363,70.2936406 74.288838,70.6288229 74.46,70.8015416 C73.2912886,72.201103 72.1609544,73.5545161 70.9791948,74.97 C69.3092782,73.1410707 67.751167,71.4343938 66.3,69.8448418 C67.4838064,68.4749665 68.6346084,67.1428734 69.8038314,65.79 Z M73.2865079,60.18 C73.7340183,60.474408 74.1204579,60.7287622 74.5831076,61.0336301 C73.9439171,61.9974719 73.3280771,62.9258521 72.6845244,63.8960719 C73.0134856,64.1198118 73.2883041,64.3070696 73.6249633,64.5359118 C74.191536,63.7067732 74.7370676,62.908504 75.3172401,62.0599762 C75.7447357,62.3388219 76.1283527,62.5890943 76.5838176,62.8860535 C76.0226335,63.7322851 75.4889055,64.5364221 74.9223328,65.3903073 C75.2266604,65.5890455 75.4865961,65.7587 75.8294137,65.9824399 C76.4734796,65.031099 77.0970176,64.1098621 77.7503211,63.1447447 C78.1947523,63.4343055 78.5801654,63.6853431 79.05,63.9912315 C78.0749201,65.4497502 77.1265266,66.8687253 76.1432355,68.34 C74.2071886,67.0587894 72.3301598,65.816357 70.38,64.5259622 C71.3771475,63.0347882 72.3183562,61.6278037 73.2865079,60.18 Z M80.4432567,35.8625239 C79.3945343,35.5093436 78.3353756,35.1835791 77.3013712,34.7903502 C76.821833,34.6081156 76.5975846,34.7355185 76.3556747,35.1553569 C75.6751692,36.3361188 74.9502422,37.4910775 74.2397656,38.6543684 C74.2210337,38.6850097 74.1659082,38.6936107 74.032376,38.76 C73.7901985,38.1676032 73.522599,37.5897207 73.3272514,36.9881853 C73.2718583,36.8180459 73.3901373,36.5581332 73.4920927,36.3748234 C73.9242659,35.5964291 74.3799878,34.8317427 74.8225973,34.0697441 C73.9162379,33.3859612 73.0401172,33.5604011 72.1123498,34.0861398 C71.8653555,33.485142 71.6488675,32.9591345 71.4,32.3538362 C73.6237516,31.4270738 75.7931806,30.5228893 78.0554666,29.58 C78.2928273,30.1503566 78.5101181,30.6726012 78.769422,31.2959079 C77.8135566,31.7017696 76.9074648,32.0863975 75.8699816,32.5266633 C76.9813223,32.907797 77.9353144,33.2814048 78.9166017,33.555563 C79.6075435,33.7485489 80.0469418,34.1009229 80.2232899,34.8070147 C80.3022317,35.1233718 80.4587774,35.4201077 80.58,35.7257135 C80.5345081,35.7714066 80.4887486,35.8170996 80.4432567,35.8625239 M74.1027701,23.768814 C75.3055041,25.1800887 75.2618092,27.1277078 73.9429715,28.2985265 C73.65059,27.9409636 73.355462,27.6423287 73.1427301,27.2935051 C73.0406088,27.1259599 73.0168887,26.8323189 73.0902962,26.6492926 C73.4226273,25.8213048 73.2545891,25.0714715 72.5634602,24.5443659 C71.9105332,24.0464745 71.005424,24.08293 70.3172913,24.6350051 C69.6146769,25.1988158 69.3792237,26.0527719 69.7200441,26.8033543 C70.0845847,27.6061229 70.7874488,27.9919013 71.6473649,27.7744172 C72.0041652,27.6842774 72.1879336,27.7826571 72.376446,28.0430887 C72.6044086,28.3577041 72.8513474,28.6583366 73.0890478,28.9637133 C71.7931811,30.0054398 69.8995679,29.6913238 68.7412778,28.2872902 C67.3857363,26.6442987 67.5560217,24.6022951 69.1617478,23.2511967 C70.6528684,21.9962309 72.7824342,22.2192083 74.1027701,23.768814 Z M66.9760694,16.5699069 C67.2975529,16.8957614 67.9531369,16.9706091 67.8098067,17.6653557 C67.3311143,19.9845635 66.8337486,22.2997617 66.3409251,24.6157618 C66.3232612,24.6988961 66.2778396,24.7753476 66.1905294,24.99 C65.702248,24.6272562 65.2432383,24.3540623 64.8770903,23.9790221 C64.7408257,23.8392174 64.7511717,23.4403864 64.817033,23.1971315 C64.9434562,22.7322741 64.8374726,22.4350221 64.4534084,22.1923018 C64.1483272,21.9998364 63.8510685,21.7825109 63.5838386,21.535781 C63.0617434,21.053281 62.5603402,20.7830275 61.9600191,21.4197672 C61.8719518,21.513594 61.5855438,21.5127921 61.4618964,21.4325982 C61.0382145,21.1580677 60.6460753,20.8284707 60.18,20.4726771 C60.3178796,20.338379 60.4098935,20.2259792 60.5073337,20.1427315 L60.5822328,20.0858751 L64.2525724,17.6776026 L66.0820224,16.4640509 C66.4458993,16.2199941 66.7161574,16.3066035 66.9760694,16.5699069 Z M65.8541578,18.7223114 C65.2301165,19.1625759 64.7415828,19.5068751 64.172552,19.9078447 C64.6166736,20.2224721 64.9525405,20.4601134 65.3731943,20.7579001 C65.4060492,20.6187904 65.4379048,20.4839577 65.4692659,20.3512443 L65.6555345,19.5631328 C65.7183373,19.2973979 65.7831993,19.0228782 65.8541578,18.7223114 Z M55.6018207,12.0463512 C55.7271341,11.6868817 55.9404443,11.6795669 56.2460376,11.7997384 C57.1865186,12.1688739 58.1408673,12.5001292 59.0775662,12.8789307 C59.8937424,13.209141 60.5838487,13.7154288 60.6796618,14.7060599 C60.770432,15.6431364 60.2555628,16.2533986 59.4466987,16.6996006 C60.0432612,17.5034434 60.0962105,18.2832519 59.5752899,19.0526108 C59.0533608,19.8237983 58.2676935,20.0382783 57.4530302,19.7945391 C56.2079645,19.4220075 54.9926512,18.9376641 53.7780944,18.4635092 C53.6530331,18.4146568 53.5123391,18.0747805 53.5592371,17.9352771 C54.2223645,15.9657707 54.9185221,14.0082815 55.6018207,12.0463512 Z M56.0750869,16.368084 C55.9313672,16.7813694 55.8206779,17.0998239 55.687296,17.4833277 C56.2851192,17.6962403 56.8229332,17.9483392 57.3864654,18.059106 C57.6161646,18.1043009 57.9023431,17.8433197 58.1625513,17.7213196 C58.0200924,17.4872464 57.9293221,17.1507662 57.7248368,17.0392157 C57.230643,16.7703973 56.6834999,16.6065983 56.0750869,16.368084 Z M57.5733009,14.0069753 C57.1365949,13.7851805 56.8668055,13.8797503 56.7598982,14.3907404 C56.7256072,14.5558456 56.6676151,14.7154646 56.5949989,14.9652124 C57.1333171,15.1418122 57.6343187,15.3586434 58.1554914,15.4503395 C58.3491347,15.484301 58.7099466,15.269821 58.7749986,15.0851226 C58.8350078,14.9150538 58.6572494,14.5558456 58.4827687,14.4192158 C58.2260905,14.2183204 57.87133,14.1582346 57.5733009,14.0069753 Z M44.2757489,17.3274202 C44.2327597,16.9889415 44.1399536,16.6911724 44.1687817,16.4056931 C44.2580475,15.519811 43.9123637,14.8026561 43.4473218,14.0936943 C42.8421856,13.1711992 42.2843375,12.2166996 41.7120754,11.2721854 C41.584878,11.0622364 41.4824625,10.8366693 41.31,10.5066398 C41.981643,10.4702828 42.5377209,10.4034576 43.0889942,10.4326456 C43.258675,10.4416068 43.4538966,10.6868887 43.5702203,10.8684177 C44.0372853,11.5973502 44.4777981,12.343437 44.9936685,13.1911699 C45.3947324,12.4002769 45.7846697,11.7248558 46.0848355,11.0105173 C46.3344257,10.4167714 46.6894659,10.1341085 47.3348096,10.2129673 C47.6615275,10.2529088 47.9970962,10.2198803 48.45,10.2198803 C48.3316533,10.5117605 48.2623648,10.7199172 48.1655127,10.913992 C47.5199161,12.2067142 46.8100885,13.4712725 46.2471829,14.7998397 C46.0246506,15.3257362 46.0739617,15.9934763 46.0929276,16.593623 C46.1101233,17.1528041 45.9374078,17.3834919 45.379054,17.333309 C45.0285656,17.3015606 44.6730197,17.3274202 44.2757489,17.3274202 M40.562131,78.2973114 C40.4551937,78.7604847 40.0979831,78.9542639 39.6644604,78.9181225 C39.1930328,78.8791616 38.7273788,78.7704812 38.1575488,78.6751296 C38.29235,78.0509863 38.4025506,77.5414189 38.5320802,76.9429078 C39.0677706,77.0838847 39.556017,77.1741099 40.0156464,77.3450765 C40.42005,77.495281 40.6708254,77.8279865 40.562131,78.2973114 M40.9951516,80.3317365 C41.8960854,79.8793287 42.3203201,79.1065189 42.3298591,78.1150668 C42.3396491,77.1164376 41.8388514,76.337476 40.9507199,76.0183556 C39.7425297,75.5841467 38.4743441,75.3242365 37.1582125,74.97 C36.6601761,77.2945811 36.1889995,79.4925393 35.7,81.7743147 C36.2826323,81.9058078 36.7992447,82.0224341 37.3766055,82.1526455 C37.5372625,81.4862092 37.6831088,80.8802648 37.8194162,80.3143066 C38.5119981,80.2466377 38.881509,80.5155191 39.0700299,81.1147991 C39.1973003,81.5185057 39.3905906,81.9027319 39.5791115,82.2831132 C39.6594399,82.4448522 39.7786775,82.6609314 39.9220136,82.7027118 C40.4908395,82.8675266 41.0762331,82.9731311 41.7866379,83.13 C41.3646625,82.1739202 41.0074519,81.3649691 40.6404512,80.5334616 C40.781026,80.4529766 40.885453,80.3865893 40.9951516,80.3317365 M47.2027775,80.2464597 C47.4307899,79.6032595 47.6477439,78.9922577 47.9334177,78.1865326 C48.2730666,78.9472822 48.5355705,79.5347742 48.8536293,80.2464597 L47.2027775,80.2464597 Z M48.8602117,76.3427942 C48.5537377,75.7169709 47.959747,76.1186836 47.5076717,76.0982402 C47.2875581,76.0885296 46.9278988,76.3154512 46.8457512,76.5173297 C46.0121631,78.5724016 45.221492,80.6440837 44.4242385,82.7129548 C44.3831647,82.8192605 44.39238,82.9442207 44.37,83.13 C44.922127,83.1013793 45.4223851,83.0944796 45.9168508,83.0377492 C46.0548167,83.02165 46.2744037,82.8711356 46.2878317,82.7630411 C46.4031544,81.8226452 47.0753433,81.7973465 47.8120392,81.8254561 C48.1385235,81.8377222 48.4710635,81.8190676 48.7935983,81.7705145 C49.3243986,81.6905297 49.653779,81.8458995 49.8264997,82.3723168 C49.8933764,82.5752175 50.1234951,82.8450702 50.3104337,82.87088 C50.8149045,82.9398765 51.3359628,82.8943899 52.02,82.8943899 C50.9015281,80.5699764 49.8928498,78.4507634 48.8602117,76.3427942 L48.8602117,76.3427942 Z" id="Combined-Shape" fill="#042768" fill-rule="nonzero"></path>
                    <circle id="Oval" fill="#042768" cx="46.42" cy="47.42" r="24.5"></circle>
                    <path d="M32.4697418,36.876847 C32.5648677,34.896231 33.3579367,33.3917539 35.0815965,32.4967751 C37.3990645,31.2934977 39.7952299,31.3416693 42.0909699,32.5616801 C44.8747932,34.0410573 45.1699749,37.968569 43.1225161,39.696157 C43.0599821,39.7486388 43.0167912,39.8216569 42.9394186,39.9157184 C43.8297333,40.5444854 44.532446,41.2766947 44.7648287,42.3308935 C45.2126358,44.3599347 44.3379546,46.3910041 42.4306674,47.4218777 C40.0700086,48.6979197 37.581632,48.7714449 35.1226676,47.7243451 C33.3224301,46.957655 32.467887,45.4559668 32.143823,43.6449658 C32.0762545,43.2677056 32.2601469,43.1460087 32.613358,43.1465158 C33.6276808,43.1475299 34.6433285,43.1206552 35.6552666,43.1662915 C35.8672463,43.1759259 36.2013792,43.4165307 36.2496046,43.6049072 C36.6624351,45.215362 39.2533568,45.2909154 40.2077954,44.5156052 C41.0808867,43.8067211 41.0376958,42.5337215 40.0106543,42.0083969 C39.4743456,41.7340719 38.80237,41.6258124 38.1831244,41.5925994 C36.7668351,41.5167924 36.9006472,41.7771729 36.8911082,40.3122472 C36.8881934,39.9109012 36.9160158,39.5077805 36.8852787,39.1087163 C36.8457975,38.5965754 37.0890442,38.4320312 37.5890513,38.4591594 C37.9843934,38.4804564 38.3842401,38.4723432 38.7787873,38.4406513 C39.8450451,38.3549565 40.6129415,37.5801533 40.5570319,36.6704695 C40.4952928,35.6705272 39.7827761,35.0764945 38.6439152,35.0757339 C37.5365863,35.0749733 36.9700706,35.470488 36.5532655,36.4836141 C36.4878168,36.6428342 36.2800767,36.8558036 36.1332808,36.8596066 C34.9483143,36.8902844 33.762023,36.876847 32.4697418,36.876847 M56.2862381,43.4654501 C55.5488596,44.5228479 54.5009514,44.9785487 53.2201458,44.8586141 C51.9606306,44.7407037 51.0537071,44.1000406 50.5458506,42.9439625 C49.8082125,41.2663967 49.7368115,39.5554314 50.2978942,37.8270073 C50.8322339,36.1808168 51.9710163,35.3243221 53.5446961,35.3215281 C55.1305791,35.3190085 56.3451764,36.2149754 56.8496575,37.8543342 C57.0646397,38.5534464 57.1347426,39.2950671 57.2147118,39.7206577 C57.1588891,41.241094 57.0103749,42.4272823 56.2862381,43.4654501 M59.2180964,34.0665273 C56.3389451,30.6719236 50.4090202,30.8457528 47.6861724,34.3645925 C45.9946158,36.5509946 45.6843456,39.0617767 46.0203202,41.6869268 C46.2563332,43.5294658 46.9892978,45.1422568 48.3674685,46.489623 C51.3029618,49.3597027 57.740743,49.3452802 60.1559171,44.6518914 C60.8982288,43.2093873 61.2144706,41.679589 61.1988922,39.9853235 C61.2282316,37.8553463 60.6775345,35.7871076 59.2180964,34.0665273" id="Combined-Shape" fill="#05DDFB" fill-rule="nonzero"></path>
                    <path d="M59.4276977,52.5324983 C60.1465209,52.5727847 60.8697366,52.5429523 61.71,52.5429523 L61.6336429,52.6935163 L61.5056186,52.9491307 C61.4474823,53.0646991 61.3958055,53.1648413 61.3399947,53.2627525 C60.361496,54.9812976 59.4116779,56.7171812 58.3858951,58.4076789 C57.8812719,59.239414 57.6507937,60.071404 57.6874842,61.0443963 C57.750013,62.7099063 57.7045375,62.7114361 56.0374466,62.7114361 C55.8441756,62.7114361 55.6299756,62.7621766 55.4635766,62.6958825 C55.2914931,62.6272937 55.1473151,62.4587539 55.028717,62.3057677 C54.9760068,62.2376888 55.0008116,62.0979614 55.0155394,61.9941858 C55.255061,60.3100625 54.7127139,58.8582233 53.7936434,57.4558497 C52.9203069,56.1233397 52.1877894,54.7008229 51.3963604,53.3160427 C51.2751785,53.1039018 51.1713083,52.8818168 51,52.5488168 C51.9805657,52.5488168 52.8327148,52.524594 53.6809882,52.5694699 C53.849971,52.5783941 54.0512519,52.824702 54.1582227,53.0070105 C54.7829942,54.0707747 55.3832193,55.1480526 55.9937797,56.2197211 C56.0950661,56.397695 56.2064294,56.5698045 56.3588758,56.819682 C57.0960441,55.5307731 57.8060823,54.3244768 58.4765877,53.0967624 C58.6964721,52.6941537 58.947621,52.5057257 59.4276977,52.5324983 Z M46.3546209,52.0201394 C48.1644576,52.04014 48.168096,52.0198863 48.8768015,53.6586636 C50.0091189,56.2762008 51.1370183,58.895257 52.2649177,61.5145664 C52.3462616,61.7034321 52.4120124,61.8988803 52.53,62.2100277 C51.6092287,62.2100277 50.8106032,62.2447122 50.0197742,62.1847106 C49.8336968,62.170533 49.6083768,61.8641958 49.5122194,61.6457091 C49.0189584,60.5256796 49.0316927,60.5201099 47.77619,60.520363 C46.9770447,60.520363 46.1771197,60.5418826 45.379014,60.5117552 C44.9483851,60.4955522 44.7269634,60.6213783 44.5710326,61.0360728 C44.162234,62.1235697 44.1098239,62.2075997 43.114251,62.2140527 L41.31,62.2145848 C41.4222702,61.9059691 41.4885408,61.6897609 41.5779411,61.48292 C42.8542346,58.5365134 44.1453415,55.5961829 45.3998047,52.6411684 C45.5978368,52.1750802 45.8413488,52.0145697 46.3546209,52.0201394 Z M32.8275536,52.0200134 L32.9421824,52.0227498 C34.5319624,52.1002931 36.1501497,51.9844849 37.7076837,52.2401752 C40.3467391,52.6732523 41.9285856,54.7823807 41.814189,57.3724805 C41.701072,59.9359723 39.8991336,61.9143413 37.2529124,62.147985 C35.6109245,62.2926819 33.945136,62.174593 32.2286752,62.174593 C32.1989883,61.8238741 32.1475483,61.4934279 32.1467805,61.1629817 C32.1401266,58.3797838 32.1588088,55.5963324 32.1301456,52.8131344 C32.1234917,52.1920274 32.3440954,51.9936077 32.9421824,52.0227498 Z M35.502926,54.4858914 C35.0312639,54.4303947 34.8702897,54.6141167 34.8800147,55.0872324 C34.9045831,56.3073998 34.9073982,57.5288342 34.8731049,58.7487482 C34.8416266,59.865271 34.8150108,59.8645108 35.9446453,59.8569085 C36.1568036,59.8569085 36.3699857,59.8690722 36.5813762,59.8551346 C37.9108848,59.7672015 38.9750036,58.7713017 39.1472383,57.4599068 C39.3056532,56.2541838 38.5629711,55.0560631 37.3212433,54.690393 C36.7456774,54.5208619 36.1097142,54.5573529 35.502926,54.4858914 Z M46.9162317,55.1832606 C46.5532594,56.0963648 46.2366694,56.8932564 45.909311,57.7164907 L45.7111465,58.2147328 L48.1257348,58.2147328 C47.7239532,57.2076177 47.3504989,56.2713905 46.9162317,55.1832606 Z" id="Combined-Shape" fill="#F0F8FF" fill-rule="nonzero"></path>
                    <path d="M15.0102125,42.1119278 C14.9192897,43.2576705 14.8413559,44.205952 14.7690901,45.1547539 C14.4986834,48.7142568 14.8970904,52.1993541 15.7243694,55.6381431 C15.7824655,55.8787906 15.8566207,56.182657 15.7713658,56.3754352 C15.7042955,56.5273684 15.4017707,56.6142617 15.2062278,56.609839 C15.1068031,56.6074975 14.9653415,56.3546225 14.9228322,56.1899415 C13.9540915,52.4249125 13.5660757,48.5927623 13.8728515,44.6864667 C13.9370878,43.8677446 14.0178555,43.0487624 14.1418411,42.239406 C14.1680552,42.068221 14.4193326,41.8169069 14.5626836,41.8199717 C14.7457099,41.8244515 14.9242491,42.0500098 15.0102125,42.1119278" id="Fill-34" stroke="#042768" stroke-width="0.3" fill="#042768" fill-rule="nonzero"></path>
                    <path d="M78.3643557,41.9950388 C78.928051,41.6844656 79.1676334,41.7617824 79.254301,42.4328189 C79.8526633,47.0603327 79.5686786,51.6170599 78.437014,56.1155383 C78.4054338,56.2406556 78.3645932,56.3634222 78.3209032,56.484099 C78.3073688,56.5211902 78.2698525,56.5475719 78.217377,56.61 C78.1252482,56.5927604 78.0098498,56.5838795 77.9015747,56.5480943 C77.7916375,56.512048 77.6885862,56.4493587 77.52,56.3683851 C78.7827345,51.6486658 79.0479609,46.855809 78.3643557,41.9950388" id="Fill-36" stroke="#042768" stroke-width="0.3" fill="#042768" fill-rule="nonzero"></path>
                </g>
            </g>
        </g>
    </g>
</svg>